<svg width="182" height="56" viewBox="0 0 182 56" fill="none" xmlns="http://www.w3.org/2000/svg">
<rect x="0.5" y="0.5" width="181" height="55" rx="1.5" fill="white"/>
<path d="M68.86 17.836C68.86 18.556 68.748 19.184 68.524 19.72C68.3 20.248 67.984 20.688 67.576 21.04C67.168 21.384 66.68 21.644 66.112 21.82C65.544 21.988 64.92 22.072 64.24 22.072C63.904 22.072 63.532 22.056 63.124 22.024C62.724 22 62.36 21.948 62.032 21.868V13.804C62.36 13.724 62.724 13.672 63.124 13.648C63.532 13.616 63.904 13.6 64.24 13.6C64.92 13.6 65.544 13.688 66.112 13.864C66.68 14.032 67.168 14.292 67.576 14.644C67.984 14.988 68.3 15.428 68.524 15.964C68.748 16.492 68.86 17.116 68.86 17.836ZM64.336 21.052C65.44 21.052 66.264 20.772 66.808 20.212C67.352 19.644 67.624 18.852 67.624 17.836C67.624 16.82 67.352 16.032 66.808 15.472C66.264 14.904 65.44 14.62 64.336 14.62C64.008 14.62 63.752 14.624 63.568 14.632C63.392 14.64 63.268 14.648 63.196 14.656V21.016C63.268 21.024 63.392 21.032 63.568 21.04C63.752 21.048 64.008 21.052 64.336 21.052Z" fill="#333333"/>
<path d="M76.0227 18.88C76.0227 19.376 75.9507 19.824 75.8067 20.224C75.6627 20.624 75.4587 20.968 75.1947 21.256C74.9387 21.544 74.6307 21.768 74.2707 21.928C73.9107 22.08 73.5187 22.156 73.0947 22.156C72.6707 22.156 72.2787 22.08 71.9187 21.928C71.5587 21.768 71.2467 21.544 70.9827 21.256C70.7267 20.968 70.5267 20.624 70.3827 20.224C70.2387 19.824 70.1667 19.376 70.1667 18.88C70.1667 18.392 70.2387 17.948 70.3827 17.548C70.5267 17.14 70.7267 16.792 70.9827 16.504C71.2467 16.216 71.5587 15.996 71.9187 15.844C72.2787 15.684 72.6707 15.604 73.0947 15.604C73.5187 15.604 73.9107 15.684 74.2707 15.844C74.6307 15.996 74.9387 16.216 75.1947 16.504C75.4587 16.792 75.6627 17.14 75.8067 17.548C75.9507 17.948 76.0227 18.392 76.0227 18.88ZM74.8587 18.88C74.8587 18.176 74.6987 17.62 74.3787 17.212C74.0667 16.796 73.6387 16.588 73.0947 16.588C72.5507 16.588 72.1187 16.796 71.7987 17.212C71.4867 17.62 71.3307 18.176 71.3307 18.88C71.3307 19.584 71.4867 20.144 71.7987 20.56C72.1187 20.968 72.5507 21.172 73.0947 21.172C73.6387 21.172 74.0667 20.968 74.3787 20.56C74.6987 20.144 74.8587 19.584 74.8587 18.88Z" fill="#333333"/>
<path d="M82.5405 22C82.3165 21.424 82.0765 20.768 81.8205 20.032C81.5725 19.288 81.3445 18.516 81.1365 17.716C80.9285 18.516 80.7005 19.288 80.4525 20.032C80.2045 20.768 79.9685 21.424 79.7445 22H78.7725C78.4045 21.176 78.0445 20.236 77.6925 19.18C77.3405 18.124 77.0085 16.984 76.6965 15.76H77.8965C77.9765 16.136 78.0725 16.544 78.1845 16.984C78.2965 17.424 78.4125 17.864 78.5325 18.304C78.6605 18.744 78.7925 19.168 78.9285 19.576C79.0645 19.984 79.1925 20.34 79.3125 20.644C79.4485 20.268 79.5805 19.872 79.7085 19.456C79.8445 19.032 79.9725 18.608 80.0925 18.184C80.2125 17.752 80.3245 17.332 80.4285 16.924C80.5405 16.508 80.6365 16.12 80.7165 15.76H81.6405C81.7125 16.12 81.8005 16.508 81.9045 16.924C82.0085 17.332 82.1205 17.752 82.2405 18.184C82.3605 18.608 82.4845 19.032 82.6125 19.456C82.7485 19.872 82.8845 20.268 83.0205 20.644C83.1405 20.34 83.2645 19.984 83.3925 19.576C83.5285 19.168 83.6605 18.744 83.7885 18.304C83.9165 17.864 84.0365 17.424 84.1485 16.984C84.2605 16.544 84.3565 16.136 84.4365 15.76H85.5885C85.2765 16.984 84.9445 18.124 84.5925 19.18C84.2405 20.236 83.8805 21.176 83.5125 22H82.5405Z" fill="#333333"/>
<path d="M86.7686 15.94C87.0246 15.876 87.3646 15.808 87.7886 15.736C88.2126 15.664 88.7006 15.628 89.2526 15.628C89.7486 15.628 90.1606 15.7 90.4886 15.844C90.8166 15.98 91.0766 16.176 91.2686 16.432C91.4686 16.68 91.6086 16.98 91.6886 17.332C91.7686 17.684 91.8086 18.072 91.8086 18.496V22H90.6926V18.736C90.6926 18.352 90.6646 18.024 90.6086 17.752C90.5606 17.48 90.4766 17.26 90.3566 17.092C90.2366 16.924 90.0766 16.804 89.8766 16.732C89.6766 16.652 89.4286 16.612 89.1326 16.612C89.0126 16.612 88.8886 16.616 88.7606 16.624C88.6326 16.632 88.5086 16.644 88.3886 16.66C88.2766 16.668 88.1726 16.68 88.0766 16.696C87.9886 16.712 87.9246 16.724 87.8846 16.732V22H86.7686V15.94Z" fill="#333333"/>
<path d="M95.5312 22.12C94.8432 22.104 94.3552 21.956 94.0672 21.676C93.7792 21.396 93.6352 20.96 93.6352 20.368V12.88L94.7512 12.688V20.188C94.7512 20.372 94.7672 20.524 94.7992 20.644C94.8312 20.764 94.8832 20.86 94.9552 20.932C95.0272 21.004 95.1232 21.06 95.2432 21.1C95.3632 21.132 95.5112 21.16 95.6872 21.184L95.5312 22.12Z" fill="#333333"/>
<path d="M102.448 18.88C102.448 19.376 102.376 19.824 102.232 20.224C102.088 20.624 101.884 20.968 101.62 21.256C101.364 21.544 101.056 21.768 100.696 21.928C100.336 22.08 99.9445 22.156 99.5205 22.156C99.0965 22.156 98.7044 22.08 98.3444 21.928C97.9844 21.768 97.6725 21.544 97.4085 21.256C97.1525 20.968 96.9524 20.624 96.8084 20.224C96.6644 19.824 96.5924 19.376 96.5924 18.88C96.5924 18.392 96.6644 17.948 96.8084 17.548C96.9524 17.14 97.1525 16.792 97.4085 16.504C97.6725 16.216 97.9844 15.996 98.3444 15.844C98.7044 15.684 99.0965 15.604 99.5205 15.604C99.9445 15.604 100.336 15.684 100.696 15.844C101.056 15.996 101.364 16.216 101.62 16.504C101.884 16.792 102.088 17.14 102.232 17.548C102.376 17.948 102.448 18.392 102.448 18.88ZM101.284 18.88C101.284 18.176 101.124 17.62 100.804 17.212C100.492 16.796 100.064 16.588 99.5205 16.588C98.9765 16.588 98.5444 16.796 98.2244 17.212C97.9124 17.62 97.7565 18.176 97.7565 18.88C97.7565 19.584 97.9124 20.144 98.2244 20.56C98.5444 20.968 98.9765 21.172 99.5205 21.172C100.064 21.172 100.492 20.968 100.804 20.56C101.124 20.144 101.284 19.584 101.284 18.88Z" fill="#333333"/>
<path d="M106.131 21.196C106.395 21.196 106.627 21.192 106.827 21.184C107.035 21.168 107.207 21.144 107.343 21.112V19.252C107.263 19.212 107.131 19.18 106.947 19.156C106.771 19.124 106.555 19.108 106.299 19.108C106.131 19.108 105.951 19.12 105.759 19.144C105.575 19.168 105.403 19.22 105.243 19.3C105.091 19.372 104.963 19.476 104.859 19.612C104.755 19.74 104.703 19.912 104.703 20.128C104.703 20.528 104.831 20.808 105.087 20.968C105.343 21.12 105.691 21.196 106.131 21.196ZM106.035 15.604C106.483 15.604 106.859 15.664 107.163 15.784C107.475 15.896 107.723 16.06 107.907 16.276C108.099 16.484 108.235 16.736 108.315 17.032C108.395 17.32 108.435 17.64 108.435 17.992V21.892C108.339 21.908 108.203 21.932 108.027 21.964C107.859 21.988 107.667 22.012 107.451 22.036C107.235 22.06 106.999 22.08 106.743 22.096C106.495 22.12 106.247 22.132 105.999 22.132C105.647 22.132 105.323 22.096 105.027 22.024C104.731 21.952 104.475 21.84 104.259 21.688C104.043 21.528 103.875 21.32 103.755 21.064C103.635 20.808 103.575 20.5 103.575 20.14C103.575 19.796 103.643 19.5 103.779 19.252C103.923 19.004 104.115 18.804 104.355 18.652C104.595 18.5 104.875 18.388 105.195 18.316C105.515 18.244 105.851 18.208 106.203 18.208C106.315 18.208 106.431 18.216 106.551 18.232C106.671 18.24 106.783 18.256 106.887 18.28C106.999 18.296 107.095 18.312 107.175 18.328C107.255 18.344 107.311 18.356 107.343 18.364V18.052C107.343 17.868 107.323 17.688 107.283 17.512C107.243 17.328 107.171 17.168 107.067 17.032C106.963 16.888 106.819 16.776 106.635 16.696C106.459 16.608 106.227 16.564 105.939 16.564C105.571 16.564 105.247 16.592 104.967 16.648C104.695 16.696 104.491 16.748 104.355 16.804L104.223 15.88C104.367 15.816 104.607 15.756 104.943 15.7C105.279 15.636 105.643 15.604 106.035 15.604Z" fill="#333333"/>
<path d="M114.32 17.08C114.184 16.968 113.988 16.86 113.732 16.756C113.476 16.652 113.196 16.6 112.892 16.6C112.572 16.6 112.296 16.66 112.064 16.78C111.84 16.892 111.656 17.052 111.512 17.26C111.368 17.46 111.264 17.7 111.2 17.98C111.136 18.26 111.104 18.56 111.104 18.88C111.104 19.608 111.284 20.172 111.644 20.572C112.004 20.964 112.484 21.16 113.084 21.16C113.388 21.16 113.64 21.148 113.84 21.124C114.048 21.092 114.208 21.06 114.32 21.028V17.08ZM114.32 12.88L115.436 12.688V21.82C115.18 21.892 114.852 21.964 114.452 22.036C114.052 22.108 113.592 22.144 113.072 22.144C112.592 22.144 112.16 22.068 111.776 21.916C111.392 21.764 111.064 21.548 110.792 21.268C110.52 20.988 110.308 20.648 110.156 20.248C110.012 19.84 109.94 19.384 109.94 18.88C109.94 18.4 110 17.96 110.12 17.56C110.248 17.16 110.432 16.816 110.672 16.528C110.912 16.24 111.204 16.016 111.548 15.856C111.9 15.696 112.3 15.616 112.748 15.616C113.108 15.616 113.424 15.664 113.696 15.76C113.976 15.856 114.184 15.948 114.32 16.036V12.88Z" fill="#333333"/>
<path d="M121.248 22H120.132V15.76H121.248V22ZM120.684 14.632C120.484 14.632 120.312 14.568 120.168 14.44C120.032 14.304 119.964 14.124 119.964 13.9C119.964 13.676 120.032 13.5 120.168 13.372C120.312 13.236 120.484 13.168 120.684 13.168C120.884 13.168 121.052 13.236 121.188 13.372C121.332 13.5 121.404 13.676 121.404 13.9C121.404 14.124 121.332 14.304 121.188 14.44C121.052 14.568 120.884 14.632 120.684 14.632Z" fill="#333333"/>
<path d="M124.211 15.76H126.575V16.696H124.211V19.576C124.211 19.888 124.235 20.148 124.283 20.356C124.331 20.556 124.403 20.716 124.499 20.836C124.595 20.948 124.715 21.028 124.859 21.076C125.003 21.124 125.171 21.148 125.363 21.148C125.699 21.148 125.967 21.112 126.167 21.04C126.375 20.96 126.519 20.904 126.599 20.872L126.815 21.796C126.703 21.852 126.507 21.92 126.227 22C125.947 22.088 125.627 22.132 125.267 22.132C124.843 22.132 124.491 22.08 124.211 21.976C123.939 21.864 123.719 21.7 123.551 21.484C123.383 21.268 123.263 21.004 123.191 20.692C123.127 20.372 123.095 20.004 123.095 19.588V14.02L124.211 13.828V15.76Z" fill="#333333"/>
<path d="M133.208 12.688C133.536 12.688 133.816 12.712 134.048 12.76C134.288 12.808 134.456 12.852 134.552 12.892L134.348 13.852C134.252 13.804 134.116 13.76 133.94 13.72C133.764 13.672 133.548 13.648 133.292 13.648C132.772 13.648 132.408 13.792 132.2 14.08C131.992 14.36 131.888 14.74 131.888 15.22V15.76H134.288V16.696H131.888V22H130.772V15.196C130.772 14.396 130.968 13.78 131.36 13.348C131.752 12.908 132.368 12.688 133.208 12.688Z" fill="#333333"/>
<path d="M140.909 18.88C140.909 19.376 140.837 19.824 140.693 20.224C140.549 20.624 140.345 20.968 140.081 21.256C139.825 21.544 139.517 21.768 139.157 21.928C138.797 22.08 138.405 22.156 137.981 22.156C137.557 22.156 137.165 22.08 136.805 21.928C136.445 21.768 136.133 21.544 135.869 21.256C135.613 20.968 135.413 20.624 135.269 20.224C135.125 19.824 135.053 19.376 135.053 18.88C135.053 18.392 135.125 17.948 135.269 17.548C135.413 17.14 135.613 16.792 135.869 16.504C136.133 16.216 136.445 15.996 136.805 15.844C137.165 15.684 137.557 15.604 137.981 15.604C138.405 15.604 138.797 15.684 139.157 15.844C139.517 15.996 139.825 16.216 140.081 16.504C140.345 16.792 140.549 17.14 140.693 17.548C140.837 17.948 140.909 18.392 140.909 18.88ZM139.745 18.88C139.745 18.176 139.585 17.62 139.265 17.212C138.953 16.796 138.525 16.588 137.981 16.588C137.437 16.588 137.005 16.796 136.685 17.212C136.373 17.62 136.217 18.176 136.217 18.88C136.217 19.584 136.373 20.144 136.685 20.56C137.005 20.968 137.437 21.172 137.981 21.172C138.525 21.172 138.953 20.968 139.265 20.56C139.585 20.144 139.745 19.584 139.745 18.88Z" fill="#333333"/>
<path d="M144.784 15.628C144.88 15.628 144.988 15.636 145.108 15.652C145.236 15.66 145.36 15.676 145.48 15.7C145.6 15.716 145.708 15.736 145.804 15.76C145.908 15.776 145.984 15.792 146.032 15.808L145.84 16.78C145.752 16.748 145.604 16.712 145.396 16.672C145.196 16.624 144.936 16.6 144.616 16.6C144.408 16.6 144.2 16.624 143.992 16.672C143.792 16.712 143.66 16.74 143.596 16.756V22H142.48V16.024C142.744 15.928 143.072 15.84 143.464 15.76C143.856 15.672 144.296 15.628 144.784 15.628Z" fill="#333333"/>
<path d="M73.6271 44C73.3664 43.31 73.1211 42.6353 72.8911 41.976C72.6611 41.3013 72.4234 40.619 72.1781 39.929H64.9561L63.5071 44H61.1841C61.7974 42.3133 62.3724 40.757 62.9091 39.331C63.4457 37.8896 63.9671 36.525 64.4731 35.237C64.9944 33.949 65.5081 32.7223 66.0141 31.557C66.5201 30.3763 67.0491 29.211 67.6011 28.061H69.6481C70.2001 29.211 70.7291 30.3763 71.2351 31.557C71.7411 32.7223 72.2471 33.949 72.7531 35.237C73.2744 36.525 73.8034 37.8896 74.3401 39.331C74.8767 40.757 75.4517 42.3133 76.0651 44H73.6271ZM71.5341 38.089C71.0434 36.755 70.5527 35.467 70.0621 34.225C69.5867 32.9676 69.0884 31.764 68.5671 30.614C68.0304 31.764 67.5167 32.9676 67.0261 34.225C66.5507 35.467 66.0754 36.755 65.6001 38.089H71.5341Z" fill="black"/>
<path d="M78.0911 32.385C78.5817 32.2623 79.2334 32.132 80.0461 31.994C80.8587 31.856 81.7941 31.787 82.8521 31.787C83.8027 31.787 84.5924 31.925 85.2211 32.201C85.8497 32.4616 86.3481 32.8373 86.7161 33.328C87.0994 33.8033 87.3677 34.3783 87.5211 35.053C87.6744 35.7276 87.7511 36.4713 87.7511 37.284V44H85.6121V37.744C85.6121 37.008 85.5584 36.3793 85.4511 35.858C85.3591 35.3366 85.1981 34.915 84.9681 34.593C84.7381 34.271 84.4314 34.041 84.0481 33.903C83.6647 33.7496 83.1894 33.673 82.6221 33.673C82.3921 33.673 82.1544 33.6806 81.9091 33.696C81.6637 33.7113 81.4261 33.7343 81.1961 33.765C80.9814 33.7803 80.7821 33.8033 80.5981 33.834C80.4294 33.8646 80.3067 33.8876 80.2301 33.903V44H78.0911V32.385Z" fill="black"/>
<path d="M99.0261 34.57C98.7654 34.3553 98.3898 34.1483 97.8991 33.949C97.4084 33.7496 96.8718 33.65 96.2891 33.65C95.6758 33.65 95.1468 33.765 94.7021 33.995C94.2728 34.2096 93.9201 34.5163 93.6441 34.915C93.3681 35.2983 93.1688 35.7583 93.0461 36.295C92.9234 36.8316 92.8621 37.4066 92.8621 38.02C92.8621 39.4153 93.2071 40.4963 93.8971 41.263C94.5871 42.0143 95.5071 42.39 96.6571 42.39C97.2398 42.39 97.7228 42.367 98.1061 42.321C98.5048 42.2596 98.8114 42.1983 99.0261 42.137V34.57ZM99.0261 26.52L101.165 26.152V43.655C100.674 43.793 100.046 43.931 99.2791 44.069C98.5124 44.207 97.6308 44.276 96.6341 44.276C95.7141 44.276 94.8861 44.1303 94.1501 43.839C93.4141 43.5476 92.7854 43.1336 92.2641 42.597C91.7428 42.0603 91.3364 41.4086 91.0451 40.642C90.7691 39.86 90.6311 38.986 90.6311 38.02C90.6311 37.1 90.7461 36.2566 90.9761 35.49C91.2214 34.7233 91.5741 34.064 92.0341 33.512C92.4941 32.96 93.0538 32.5306 93.7131 32.224C94.3878 31.9173 95.1544 31.764 96.0131 31.764C96.7031 31.764 97.3088 31.856 97.8301 32.04C98.3668 32.224 98.7654 32.4003 99.0261 32.569V26.52Z" fill="black"/>
<path d="M109.258 31.787C109.442 31.787 109.649 31.8023 109.879 31.833C110.124 31.8483 110.362 31.879 110.592 31.925C110.822 31.9556 111.029 31.994 111.213 32.04C111.412 32.0706 111.558 32.1013 111.65 32.132L111.282 33.995C111.113 33.9336 110.83 33.8646 110.431 33.788C110.048 33.696 109.549 33.65 108.936 33.65C108.537 33.65 108.139 33.696 107.74 33.788C107.357 33.8646 107.104 33.9183 106.981 33.949V44H104.842V32.546C105.348 32.362 105.977 32.1933 106.728 32.04C107.479 31.8713 108.323 31.787 109.258 31.787Z" fill="black"/>
<path d="M124.271 38.02C124.271 38.9706 124.133 39.8293 123.857 40.596C123.581 41.3626 123.19 42.022 122.684 42.574C122.193 43.126 121.603 43.5553 120.913 43.862C120.223 44.1533 119.472 44.299 118.659 44.299C117.846 44.299 117.095 44.1533 116.405 43.862C115.715 43.5553 115.117 43.126 114.611 42.574C114.12 42.022 113.737 41.3626 113.461 40.596C113.185 39.8293 113.047 38.9706 113.047 38.02C113.047 37.0846 113.185 36.2336 113.461 35.467C113.737 34.685 114.12 34.018 114.611 33.466C115.117 32.914 115.715 32.4923 116.405 32.201C117.095 31.8943 117.846 31.741 118.659 31.741C119.472 31.741 120.223 31.8943 120.913 32.201C121.603 32.4923 122.193 32.914 122.684 33.466C123.19 34.018 123.581 34.685 123.857 35.467C124.133 36.2336 124.271 37.0846 124.271 38.02ZM122.04 38.02C122.04 36.6706 121.733 35.605 121.12 34.823C120.522 34.0256 119.702 33.627 118.659 33.627C117.616 33.627 116.788 34.0256 116.175 34.823C115.577 35.605 115.278 36.6706 115.278 38.02C115.278 39.3693 115.577 40.4426 116.175 41.24C116.788 42.022 117.616 42.413 118.659 42.413C119.702 42.413 120.522 42.022 121.12 41.24C121.733 40.4426 122.04 39.3693 122.04 38.02Z" fill="black"/>
<path d="M129.42 44H127.281V32.04H129.42V44ZM128.339 29.878C127.955 29.878 127.626 29.7553 127.35 29.51C127.089 29.2493 126.959 28.9043 126.959 28.475C126.959 28.0456 127.089 27.7083 127.35 27.463C127.626 27.2023 127.955 27.072 128.339 27.072C128.722 27.072 129.044 27.2023 129.305 27.463C129.581 27.7083 129.719 28.0456 129.719 28.475C129.719 28.9043 129.581 29.2493 129.305 29.51C129.044 29.7553 128.722 29.878 128.339 29.878Z" fill="black"/>
<path d="M140.826 34.57C140.565 34.3553 140.19 34.1483 139.699 33.949C139.208 33.7496 138.672 33.65 138.089 33.65C137.476 33.65 136.947 33.765 136.502 33.995C136.073 34.2096 135.72 34.5163 135.444 34.915C135.168 35.2983 134.969 35.7583 134.846 36.295C134.723 36.8316 134.662 37.4066 134.662 38.02C134.662 39.4153 135.007 40.4963 135.697 41.263C136.387 42.0143 137.307 42.39 138.457 42.39C139.04 42.39 139.523 42.367 139.906 42.321C140.305 42.2596 140.611 42.1983 140.826 42.137V34.57ZM140.826 26.52L142.965 26.152V43.655C142.474 43.793 141.846 43.931 141.079 44.069C140.312 44.207 139.431 44.276 138.434 44.276C137.514 44.276 136.686 44.1303 135.95 43.839C135.214 43.5476 134.585 43.1336 134.064 42.597C133.543 42.0603 133.136 41.4086 132.845 40.642C132.569 39.86 132.431 38.986 132.431 38.02C132.431 37.1 132.546 36.2566 132.776 35.49C133.021 34.7233 133.374 34.064 133.834 33.512C134.294 32.96 134.854 32.5306 135.513 32.224C136.188 31.9173 136.954 31.764 137.813 31.764C138.503 31.764 139.109 31.856 139.63 32.04C140.167 32.224 140.565 32.4003 140.826 32.569V26.52Z" fill="black"/>
<path d="M18.1172 32.2344C18.1172 31.9896 18.1927 31.7839 18.3438 31.6172C18.5 31.4453 18.724 31.3594 19.0156 31.3594C19.3073 31.3594 19.5286 31.4453 19.6797 31.6172C19.8359 31.7839 19.9141 31.9896 19.9141 32.2344C19.9141 32.474 19.8359 32.6771 19.6797 32.8438C19.5286 33.0104 19.3073 33.0938 19.0156 33.0938C18.724 33.0938 18.5 33.0104 18.3438 32.8438C18.1927 32.6771 18.1172 32.474 18.1172 32.2344Z" fill="#333333"/>
<path d="M27.2969 31.5547V27.2031C27.2969 26.8698 27.2292 26.5807 27.0938 26.3359C26.9635 26.0859 26.7656 25.8932 26.5 25.7578C26.2344 25.6224 25.9062 25.5547 25.5156 25.5547C25.151 25.5547 24.8307 25.6172 24.5547 25.7422C24.2839 25.8672 24.0703 26.0312 23.9141 26.2344C23.763 26.4375 23.6875 26.6562 23.6875 26.8906H22.2422C22.2422 26.5885 22.3203 26.2891 22.4766 25.9922C22.6328 25.6953 22.8568 25.4271 23.1484 25.1875C23.4453 24.9427 23.7995 24.75 24.2109 24.6094C24.6276 24.4635 25.0911 24.3906 25.6016 24.3906C26.2161 24.3906 26.7578 24.4948 27.2266 24.7031C27.7005 24.9115 28.0703 25.2266 28.3359 25.6484C28.6068 26.0651 28.7422 26.5885 28.7422 27.2188V31.1562C28.7422 31.4375 28.7656 31.737 28.8125 32.0547C28.8646 32.3724 28.9401 32.6458 29.0391 32.875V33H27.5312C27.4583 32.8333 27.401 32.612 27.3594 32.3359C27.3177 32.0547 27.2969 31.7943 27.2969 31.5547ZM27.5469 27.875L27.5625 28.8906H26.1016C25.6901 28.8906 25.3229 28.9245 25 28.9922C24.6771 29.0547 24.4062 29.151 24.1875 29.2812C23.9688 29.4115 23.8021 29.5755 23.6875 29.7734C23.5729 29.9661 23.5156 30.1927 23.5156 30.4531C23.5156 30.7188 23.5755 30.9609 23.6953 31.1797C23.8151 31.3984 23.9948 31.5729 24.2344 31.7031C24.4792 31.8281 24.7786 31.8906 25.1328 31.8906C25.5755 31.8906 25.9661 31.7969 26.3047 31.6094C26.6432 31.4219 26.9115 31.1927 27.1094 30.9219C27.3125 30.651 27.4219 30.388 27.4375 30.1328L28.0547 30.8281C28.0182 31.0469 27.9193 31.2891 27.7578 31.5547C27.5964 31.8203 27.3802 32.0755 27.1094 32.3203C26.8438 32.5599 26.526 32.7604 26.1562 32.9219C25.7917 33.0781 25.3802 33.1562 24.9219 33.1562C24.349 33.1562 23.8464 33.0443 23.4141 32.8203C22.987 32.5964 22.6536 32.2969 22.4141 31.9219C22.1797 31.5417 22.0625 31.1172 22.0625 30.6484C22.0625 30.1953 22.151 29.7969 22.3281 29.4531C22.5052 29.1042 22.7604 28.8151 23.0938 28.5859C23.4271 28.3516 23.8281 28.1745 24.2969 28.0547C24.7656 27.9349 25.2891 27.875 25.8672 27.875H27.5469Z" fill="#333333"/>
<path d="M32.4609 26.1719V36.25H31.0078V24.5469H32.3359L32.4609 26.1719ZM38.1562 28.7031V28.8672C38.1562 29.4818 38.0833 30.0521 37.9375 30.5781C37.7917 31.099 37.5781 31.5521 37.2969 31.9375C37.0208 32.3229 36.6797 32.6224 36.2734 32.8359C35.8672 33.0495 35.401 33.1562 34.875 33.1562C34.3385 33.1562 33.8646 33.0677 33.4531 32.8906C33.0417 32.7135 32.6927 32.4557 32.4062 32.1172C32.1198 31.7786 31.8906 31.3724 31.7188 30.8984C31.5521 30.4245 31.4375 29.8906 31.375 29.2969V28.4219C31.4375 27.7969 31.5547 27.237 31.7266 26.7422C31.8984 26.2474 32.125 25.8255 32.4062 25.4766C32.6927 25.1224 33.0391 24.8542 33.4453 24.6719C33.8516 24.4844 34.3203 24.3906 34.8516 24.3906C35.3828 24.3906 35.8542 24.4948 36.2656 24.7031C36.6771 24.9062 37.0234 25.1979 37.3047 25.5781C37.5859 25.9583 37.7969 26.4141 37.9375 26.9453C38.0833 27.4714 38.1562 28.0573 38.1562 28.7031ZM36.7031 28.8672V28.7031C36.7031 28.2812 36.6589 27.8854 36.5703 27.5156C36.4818 27.1406 36.3438 26.8125 36.1562 26.5312C35.974 26.2448 35.7396 26.0208 35.4531 25.8594C35.1667 25.6927 34.8255 25.6094 34.4297 25.6094C34.0651 25.6094 33.7474 25.6719 33.4766 25.7969C33.2109 25.9219 32.9844 26.0911 32.7969 26.3047C32.6094 26.513 32.4557 26.7526 32.3359 27.0234C32.2214 27.2891 32.1354 27.5651 32.0781 27.8516V29.875C32.1823 30.2396 32.3281 30.5833 32.5156 30.9062C32.7031 31.224 32.9531 31.4818 33.2656 31.6797C33.5781 31.8724 33.9714 31.9688 34.4453 31.9688C34.8359 31.9688 35.1719 31.888 35.4531 31.7266C35.7396 31.5599 35.974 31.3333 36.1562 31.0469C36.3438 30.7604 36.4818 30.4323 36.5703 30.0625C36.6589 29.6875 36.7031 29.2891 36.7031 28.8672Z" fill="#333333"/>
<path d="M41.4531 21V33H40V21H41.4531ZM46.6172 24.5469L42.9297 28.4922L40.8672 30.6328L40.75 29.0938L42.2266 27.3281L44.8516 24.5469H46.6172ZM45.2969 33L42.2812 28.9688L43.0312 27.6797L47 33H45.2969Z" fill="#333333"/>
<rect x="0.5" y="0.5" width="181" height="55" rx="1.5" stroke="#BDBDBD"/>
</svg>
