<svg width="182" height="56" viewBox="0 0 182 56" fill="none" xmlns="http://www.w3.org/2000/svg">
<rect x="0.5" y="0.5" width="181" height="55" rx="1.5" fill="white"/>
<path d="M33.3277 7.73007C21.0835 6.94726 10.9472 17.0832 11.73 29.3277C12.3769 39.4484 20.5519 47.623 30.6726 48.2703C42.9167 49.0531 53.0531 38.9172 52.2702 26.6726C51.623 16.5519 43.448 8.37694 33.3277 7.73007ZM41.1972 38.0789C41.996 35.3344 42.473 32.1773 42.537 28.7812H50.7304C50.5507 33.1355 48.8792 37.109 46.2144 40.2074C44.9917 39.3508 43.2827 38.6266 41.1972 38.0789ZM17.7859 40.2074C15.121 37.109 13.4491 33.1355 13.2698 28.7812H21.4632C21.5269 32.1773 22.0038 35.3344 22.8031 38.0789C20.7167 38.6269 19.0077 39.3508 17.7859 40.2074ZM22.7988 17.9348C22.0019 20.6766 21.5265 23.8285 21.4628 27.2187H13.2698C13.4484 22.8851 15.105 18.9289 17.7476 15.8367C18.9909 16.6793 20.712 17.3934 22.7988 17.9348ZM31.2187 27.2187H23.0253C23.0925 23.9855 23.5734 20.9336 24.3589 18.2937C26.4706 18.7195 28.8124 18.9621 31.2187 19.0058V27.2187ZM31.2187 28.7812V36.9945C28.8073 37.0383 26.4659 37.2844 24.362 37.7156C23.5745 35.0734 23.0929 32.0184 23.0253 28.7812H31.2187ZM32.7812 28.7812H40.9745C40.9074 32.0184 40.4253 35.0734 39.6382 37.7156C37.5331 37.2844 35.1921 37.0383 32.7812 36.9945V28.7812ZM32.7812 27.2187V19.0055C35.1874 18.9621 37.5292 18.7191 39.6409 18.2934C40.4265 20.9336 40.9074 23.9855 40.9745 27.2187H32.7812ZM32.7812 17.4433V9.3289C35.3472 9.81601 37.6429 12.6656 39.1484 16.8008C37.1851 17.1836 35.0136 17.4016 32.7812 17.4433ZM31.2187 9.3289V17.4433C28.9863 17.4016 26.8148 17.1836 24.8515 16.8008C26.357 12.6656 28.6527 9.81562 31.2187 9.3289ZM31.2187 38.557V46.6715C28.6542 46.1848 26.3601 43.3387 24.8546 39.2082C26.8113 38.8199 28.982 38.5992 31.2187 38.557ZM32.7812 46.6711V38.557C35.0175 38.5992 37.1878 38.8199 39.1452 39.2082C37.6398 43.3383 35.3456 46.1848 32.7812 46.6711ZM42.537 27.2187C42.4734 23.8285 41.998 20.6766 41.2015 17.9348C43.2882 17.393 45.0093 16.6793 46.2523 15.8367C48.8949 18.9285 50.5515 22.8851 50.73 27.2187H42.537ZM45.1722 14.6715C44.0784 15.3644 42.548 15.9758 40.7241 16.4437C39.7437 13.6719 38.4128 11.4164 36.8449 9.88788C40.0335 10.7418 42.8898 12.416 45.1722 14.6715ZM23.2761 16.4441C21.4523 15.9762 19.9218 15.3648 18.8281 14.6719C21.1101 12.416 23.9667 10.7422 27.1558 9.88827C25.5874 11.4164 24.2562 13.6723 23.2761 16.4441ZM18.8675 41.3664C19.9378 40.6633 21.4566 40.0434 23.2808 39.5695C24.2605 42.3351 25.5898 44.5859 27.1554 46.1121C23.9847 45.2629 21.1433 43.6023 18.8675 41.3664ZM40.7191 39.5695C42.5429 40.0434 44.062 40.6633 45.1324 41.3664C42.8566 43.6027 40.0156 45.2633 36.8445 46.1121C38.4101 44.5859 39.739 42.3351 40.7191 39.5695Z" fill="#333333"/>
<path d="M61.696 17.836C61.696 17.124 61.8 16.496 62.008 15.952C62.224 15.408 62.512 14.956 62.872 14.596C63.24 14.228 63.664 13.952 64.144 13.768C64.632 13.584 65.148 13.492 65.692 13.492C66.228 13.492 66.732 13.584 67.204 13.768C67.684 13.952 68.104 14.228 68.464 14.596C68.824 14.956 69.108 15.408 69.316 15.952C69.532 16.496 69.64 17.124 69.64 17.836C69.64 18.548 69.532 19.176 69.316 19.72C69.108 20.264 68.824 20.72 68.464 21.088C68.104 21.448 67.684 21.72 67.204 21.904C66.732 22.088 66.228 22.18 65.692 22.18C65.148 22.18 64.632 22.088 64.144 21.904C63.664 21.72 63.24 21.448 62.872 21.088C62.512 20.72 62.224 20.264 62.008 19.72C61.8 19.176 61.696 18.548 61.696 17.836ZM62.92 17.836C62.92 18.34 62.984 18.8 63.112 19.216C63.24 19.624 63.42 19.972 63.652 20.26C63.892 20.548 64.18 20.772 64.516 20.932C64.86 21.084 65.244 21.16 65.668 21.16C66.092 21.16 66.472 21.084 66.808 20.932C67.144 20.772 67.428 20.548 67.66 20.26C67.9 19.972 68.084 19.624 68.212 19.216C68.34 18.8 68.404 18.34 68.404 17.836C68.404 17.332 68.34 16.876 68.212 16.468C68.084 16.052 67.9 15.7 67.66 15.412C67.428 15.124 67.144 14.904 66.808 14.752C66.472 14.592 66.092 14.512 65.668 14.512C65.244 14.512 64.86 14.592 64.516 14.752C64.18 14.904 63.892 15.124 63.652 15.412C63.42 15.7 63.24 16.052 63.112 16.468C62.984 16.876 62.92 17.332 62.92 17.836Z" fill="#333333"/>
<path d="M75.6319 18.892C75.6319 18.164 75.4519 17.604 75.0919 17.212C74.7319 16.82 74.2519 16.624 73.6519 16.624C73.3159 16.624 73.0519 16.636 72.8599 16.66C72.6759 16.684 72.5279 16.712 72.4159 16.744V20.68C72.5519 20.792 72.7479 20.9 73.0039 21.004C73.2599 21.108 73.5399 21.16 73.8439 21.16C74.1639 21.16 74.4359 21.104 74.6599 20.992C74.8919 20.872 75.0799 20.712 75.2239 20.512C75.3679 20.304 75.4719 20.064 75.5359 19.792C75.5999 19.512 75.6319 19.212 75.6319 18.892ZM76.7959 18.892C76.7959 19.364 76.7319 19.8 76.6039 20.2C76.4839 20.6 76.3039 20.944 76.0639 21.232C75.8239 21.52 75.5279 21.744 75.1759 21.904C74.8319 22.064 74.4359 22.144 73.9879 22.144C73.6279 22.144 73.3079 22.096 73.0279 22C72.7559 21.904 72.5519 21.812 72.4159 21.724V24.22H71.2999V15.952C71.5639 15.888 71.8919 15.82 72.2839 15.748C72.6839 15.668 73.1439 15.628 73.6639 15.628C74.1439 15.628 74.5759 15.704 74.9599 15.856C75.3439 16.008 75.6719 16.224 75.9439 16.504C76.2159 16.784 76.4239 17.128 76.5679 17.536C76.7199 17.936 76.7959 18.388 76.7959 18.892Z" fill="#333333"/>
<path d="M78.0183 18.892C78.0183 18.34 78.0983 17.86 78.2583 17.452C78.4183 17.036 78.6303 16.692 78.8943 16.42C79.1583 16.148 79.4623 15.944 79.8063 15.808C80.1503 15.672 80.5023 15.604 80.8623 15.604C81.7023 15.604 82.3463 15.868 82.7943 16.396C83.2423 16.916 83.4663 17.712 83.4663 18.784C83.4663 18.832 83.4663 18.896 83.4663 18.976C83.4663 19.048 83.4623 19.116 83.4543 19.18H79.1823C79.2303 19.828 79.4183 20.32 79.7463 20.656C80.0743 20.992 80.5863 21.16 81.2823 21.16C81.6743 21.16 82.0023 21.128 82.2663 21.064C82.5383 20.992 82.7423 20.924 82.8783 20.86L83.0343 21.796C82.8983 21.868 82.6583 21.944 82.3143 22.024C81.9783 22.104 81.5943 22.144 81.1623 22.144C80.6183 22.144 80.1463 22.064 79.7463 21.904C79.3543 21.736 79.0303 21.508 78.7743 21.22C78.5183 20.932 78.3263 20.592 78.1983 20.2C78.0783 19.8 78.0183 19.364 78.0183 18.892ZM82.3023 18.28C82.3103 17.776 82.1823 17.364 81.9183 17.044C81.6623 16.716 81.3063 16.552 80.8503 16.552C80.5943 16.552 80.3663 16.604 80.1663 16.708C79.9743 16.804 79.8103 16.932 79.6743 17.092C79.5383 17.252 79.4303 17.436 79.3503 17.644C79.2783 17.852 79.2303 18.064 79.2063 18.28H82.3023Z" fill="#333333"/>
<path d="M85.0694 15.94C85.3254 15.876 85.6654 15.808 86.0894 15.736C86.5134 15.664 87.0014 15.628 87.5534 15.628C88.0494 15.628 88.4614 15.7 88.7894 15.844C89.1174 15.98 89.3774 16.176 89.5694 16.432C89.7694 16.68 89.9094 16.98 89.9894 17.332C90.0694 17.684 90.1094 18.072 90.1094 18.496V22H88.9934V18.736C88.9934 18.352 88.9654 18.024 88.9094 17.752C88.8614 17.48 88.7774 17.26 88.6574 17.092C88.5374 16.924 88.3774 16.804 88.1774 16.732C87.9774 16.652 87.7294 16.612 87.4334 16.612C87.3134 16.612 87.1894 16.616 87.0614 16.624C86.9334 16.632 86.8094 16.644 86.6894 16.66C86.5774 16.668 86.4734 16.68 86.3774 16.696C86.2894 16.712 86.2254 16.724 86.1854 16.732V22H85.0694V15.94Z" fill="#333333"/>
<path d="M95.8534 22H94.7374V15.76H95.8534V22ZM95.2894 14.632C95.0894 14.632 94.9174 14.568 94.7734 14.44C94.6374 14.304 94.5694 14.124 94.5694 13.9C94.5694 13.676 94.6374 13.5 94.7734 13.372C94.9174 13.236 95.0894 13.168 95.2894 13.168C95.4894 13.168 95.6574 13.236 95.7934 13.372C95.9374 13.5 96.0094 13.676 96.0094 13.9C96.0094 14.124 95.9374 14.304 95.7934 14.44C95.6574 14.568 95.4894 14.632 95.2894 14.632Z" fill="#333333"/>
<path d="M98.8165 15.76H101.181V16.696H98.8165V19.576C98.8165 19.888 98.8405 20.148 98.8885 20.356C98.9365 20.556 99.0085 20.716 99.1045 20.836C99.2005 20.948 99.3205 21.028 99.4645 21.076C99.6085 21.124 99.7765 21.148 99.9685 21.148C100.305 21.148 100.573 21.112 100.773 21.04C100.981 20.96 101.125 20.904 101.205 20.872L101.421 21.796C101.309 21.852 101.113 21.92 100.833 22C100.553 22.088 100.233 22.132 99.8725 22.132C99.4485 22.132 99.0965 22.08 98.8165 21.976C98.5445 21.864 98.3245 21.7 98.1565 21.484C97.9885 21.268 97.8685 21.004 97.7965 20.692C97.7325 20.372 97.7005 20.004 97.7005 19.588V14.02L98.8165 13.828V15.76Z" fill="#333333"/>
<path d="M110.478 22C110.254 21.424 110.014 20.768 109.758 20.032C109.51 19.288 109.282 18.516 109.074 17.716C108.866 18.516 108.638 19.288 108.39 20.032C108.142 20.768 107.906 21.424 107.682 22H106.71C106.342 21.176 105.982 20.236 105.63 19.18C105.278 18.124 104.946 16.984 104.634 15.76H105.834C105.914 16.136 106.01 16.544 106.122 16.984C106.234 17.424 106.35 17.864 106.47 18.304C106.598 18.744 106.73 19.168 106.866 19.576C107.002 19.984 107.13 20.34 107.25 20.644C107.386 20.268 107.518 19.872 107.646 19.456C107.782 19.032 107.91 18.608 108.03 18.184C108.15 17.752 108.262 17.332 108.366 16.924C108.478 16.508 108.574 16.12 108.654 15.76H109.578C109.65 16.12 109.738 16.508 109.842 16.924C109.946 17.332 110.058 17.752 110.178 18.184C110.298 18.608 110.422 19.032 110.55 19.456C110.686 19.872 110.822 20.268 110.958 20.644C111.078 20.34 111.202 19.984 111.33 19.576C111.466 19.168 111.598 18.744 111.726 18.304C111.854 17.864 111.974 17.424 112.086 16.984C112.198 16.544 112.294 16.136 112.374 15.76H113.526C113.214 16.984 112.882 18.124 112.53 19.18C112.178 20.236 111.818 21.176 111.45 22H110.478Z" fill="#333333"/>
<path d="M115.822 22H114.706V15.76H115.822V22ZM115.258 14.632C115.058 14.632 114.886 14.568 114.742 14.44C114.606 14.304 114.538 14.124 114.538 13.9C114.538 13.676 114.606 13.5 114.742 13.372C114.886 13.236 115.058 13.168 115.258 13.168C115.458 13.168 115.626 13.236 115.762 13.372C115.906 13.5 115.978 13.676 115.978 13.9C115.978 14.124 115.906 14.304 115.762 14.44C115.626 14.568 115.458 14.632 115.258 14.632Z" fill="#333333"/>
<path d="M118.785 15.76H121.149V16.696H118.785V19.576C118.785 19.888 118.809 20.148 118.857 20.356C118.905 20.556 118.977 20.716 119.073 20.836C119.169 20.948 119.289 21.028 119.433 21.076C119.577 21.124 119.745 21.148 119.937 21.148C120.273 21.148 120.541 21.112 120.741 21.04C120.949 20.96 121.093 20.904 121.173 20.872L121.389 21.796C121.277 21.852 121.081 21.92 120.801 22C120.521 22.088 120.201 22.132 119.841 22.132C119.417 22.132 119.065 22.08 118.785 21.976C118.513 21.864 118.293 21.7 118.125 21.484C117.957 21.268 117.837 21.004 117.765 20.692C117.701 20.372 117.669 20.004 117.669 19.588V14.02L118.785 13.828V15.76Z" fill="#333333"/>
<path d="M122.569 22V12.88L123.685 12.688V15.88C123.893 15.8 124.113 15.74 124.345 15.7C124.585 15.652 124.821 15.628 125.053 15.628C125.549 15.628 125.961 15.7 126.289 15.844C126.617 15.98 126.877 16.176 127.069 16.432C127.269 16.68 127.409 16.98 127.489 17.332C127.569 17.684 127.609 18.072 127.609 18.496V22H126.493V18.736C126.493 18.352 126.465 18.024 126.409 17.752C126.361 17.48 126.277 17.26 126.157 17.092C126.037 16.924 125.877 16.804 125.677 16.732C125.477 16.652 125.229 16.612 124.933 16.612C124.813 16.612 124.689 16.62 124.561 16.636C124.433 16.652 124.309 16.672 124.189 16.696C124.077 16.712 123.973 16.732 123.877 16.756C123.789 16.78 123.725 16.8 123.685 16.816V22H122.569Z" fill="#333333"/>
<path d="M67.279 44.138C66.957 44.138 66.6044 44.1304 66.221 44.115C65.853 44.0997 65.4774 44.0767 65.094 44.046C64.726 44.0154 64.358 43.977 63.99 43.931C63.622 43.885 63.2847 43.8237 62.978 43.747V28.291C63.2847 28.2144 63.622 28.153 63.99 28.107C64.358 28.061 64.726 28.0227 65.094 27.992C65.4774 27.9614 65.853 27.9384 66.221 27.923C66.589 27.9077 66.934 27.9 67.256 27.9C68.176 27.9 69.0347 27.969 69.832 28.107C70.6447 28.245 71.3424 28.4827 71.925 28.82C72.523 29.142 72.9907 29.5714 73.328 30.108C73.6654 30.6447 73.834 31.304 73.834 32.086C73.834 32.96 73.627 33.6807 73.213 34.248C72.799 34.8 72.247 35.214 71.557 35.49C72.4924 35.766 73.236 36.203 73.788 36.801C74.34 37.399 74.616 38.2424 74.616 39.331C74.616 40.9257 74.0257 42.1294 72.845 42.942C71.6797 43.7394 69.8244 44.138 67.279 44.138ZM65.186 36.571V42.183C65.3547 42.1984 65.554 42.2137 65.784 42.229C65.9834 42.2444 66.2134 42.2597 66.474 42.275C66.75 42.275 67.0644 42.275 67.417 42.275C68.0764 42.275 68.6974 42.2367 69.28 42.16C69.878 42.068 70.3994 41.9147 70.844 41.7C71.2887 41.4854 71.6414 41.1864 71.902 40.803C72.178 40.4197 72.316 39.9367 72.316 39.354C72.316 38.8327 72.2164 38.3957 72.017 38.043C71.8177 37.675 71.5264 37.3837 71.143 37.169C70.775 36.9544 70.3304 36.801 69.809 36.709C69.2877 36.617 68.705 36.571 68.061 36.571H65.186ZM65.186 34.777H67.532C68.084 34.777 68.6054 34.7387 69.096 34.662C69.5867 34.5854 70.0084 34.4474 70.361 34.248C70.729 34.0487 71.0127 33.788 71.212 33.466C71.4267 33.144 71.534 32.7377 71.534 32.247C71.534 31.787 71.4267 31.4037 71.212 31.097C70.9974 30.775 70.6984 30.522 70.315 30.338C69.947 30.1387 69.51 29.993 69.004 29.901C68.498 29.809 67.9614 29.763 67.394 29.763C66.8267 29.763 66.382 29.7707 66.06 29.786C65.738 29.8014 65.4467 29.8244 65.186 29.855V34.777Z" fill="black"/>
<path d="M82.0353 31.787C82.2193 31.787 82.4263 31.8024 82.6563 31.833C82.9017 31.8484 83.1393 31.879 83.3693 31.925C83.5993 31.9557 83.8063 31.994 83.9903 32.04C84.1897 32.0707 84.3353 32.1014 84.4273 32.132L84.0593 33.995C83.8907 33.9337 83.607 33.8647 83.2083 33.788C82.825 33.696 82.3267 33.65 81.7133 33.65C81.3147 33.65 80.916 33.696 80.5173 33.788C80.134 33.8647 79.881 33.9184 79.7583 33.949V44H77.6193V32.546C78.1253 32.362 78.754 32.1934 79.5053 32.04C80.2567 31.8714 81.1 31.787 82.0353 31.787Z" fill="black"/>
<path d="M97.0484 38.02C97.0484 38.9707 96.9104 39.8294 96.6344 40.596C96.3584 41.3627 95.9674 42.022 95.4614 42.574C94.9707 43.126 94.3804 43.5554 93.6904 43.862C93.0004 44.1534 92.2491 44.299 91.4364 44.299C90.6237 44.299 89.8724 44.1534 89.1824 43.862C88.4924 43.5554 87.8944 43.126 87.3884 42.574C86.8977 42.022 86.5144 41.3627 86.2384 40.596C85.9624 39.8294 85.8244 38.9707 85.8244 38.02C85.8244 37.0847 85.9624 36.2337 86.2384 35.467C86.5144 34.685 86.8977 34.018 87.3884 33.466C87.8944 32.914 88.4924 32.4924 89.1824 32.201C89.8724 31.8944 90.6237 31.741 91.4364 31.741C92.2491 31.741 93.0004 31.8944 93.6904 32.201C94.3804 32.4924 94.9707 32.914 95.4614 33.466C95.9674 34.018 96.3584 34.685 96.6344 35.467C96.9104 36.2337 97.0484 37.0847 97.0484 38.02ZM94.8174 38.02C94.8174 36.6707 94.5107 35.605 93.8974 34.823C93.2994 34.0257 92.4791 33.627 91.4364 33.627C90.3937 33.627 89.5657 34.0257 88.9524 34.823C88.3544 35.605 88.0554 36.6707 88.0554 38.02C88.0554 39.3694 88.3544 40.4427 88.9524 41.24C89.5657 42.022 90.3937 42.413 91.4364 42.413C92.4791 42.413 93.2994 42.022 93.8974 41.24C94.5107 40.4427 94.8174 39.3694 94.8174 38.02Z" fill="black"/>
<path d="M109.541 44C109.111 42.896 108.651 41.6387 108.161 40.228C107.685 38.802 107.248 37.3224 106.85 35.789C106.451 37.3224 106.014 38.802 105.539 40.228C105.063 41.6387 104.611 42.896 104.182 44H102.319C101.613 42.4207 100.923 40.619 100.249 38.595C99.5741 36.571 98.9378 34.386 98.3398 32.04H100.64C100.793 32.7607 100.977 33.5427 101.192 34.386C101.406 35.2294 101.629 36.0727 101.859 36.916C102.104 37.7594 102.357 38.572 102.618 39.354C102.878 40.136 103.124 40.8184 103.354 41.401C103.614 40.6804 103.867 39.9214 104.113 39.124C104.373 38.3114 104.619 37.4987 104.849 36.686C105.079 35.858 105.293 35.053 105.493 34.271C105.707 33.4737 105.891 32.73 106.045 32.04H107.816C107.954 32.73 108.122 33.4737 108.322 34.271C108.521 35.053 108.736 35.858 108.966 36.686C109.196 37.4987 109.433 38.3114 109.679 39.124C109.939 39.9214 110.2 40.6804 110.461 41.401C110.691 40.8184 110.928 40.136 111.174 39.354C111.434 38.572 111.687 37.7594 111.933 36.916C112.178 36.0727 112.408 35.2294 112.623 34.386C112.837 33.5427 113.021 32.7607 113.175 32.04H115.383C114.785 34.386 114.148 36.571 113.474 38.595C112.799 40.619 112.109 42.4207 111.404 44H109.541Z" fill="black"/>
<path d="M120.428 42.459C121.302 42.459 121.946 42.344 122.36 42.114C122.789 41.884 123.004 41.516 123.004 41.01C123.004 40.4887 122.797 40.0747 122.383 39.768C121.969 39.4614 121.286 39.1164 120.336 38.733C119.876 38.549 119.431 38.365 119.002 38.181C118.588 37.9817 118.227 37.7517 117.921 37.491C117.614 37.2304 117.369 36.916 117.185 36.548C117.001 36.18 116.909 35.7277 116.909 35.191C116.909 34.133 117.3 33.2974 118.082 32.684C118.864 32.0554 119.929 31.741 121.279 31.741C121.616 31.741 121.953 31.764 122.291 31.81C122.628 31.8407 122.942 31.8867 123.234 31.948C123.525 31.994 123.778 32.0477 123.993 32.109C124.223 32.1704 124.399 32.224 124.522 32.27L124.131 34.11C123.901 33.9874 123.54 33.8647 123.05 33.742C122.559 33.604 121.969 33.535 121.279 33.535C120.681 33.535 120.159 33.6577 119.715 33.903C119.27 34.133 119.048 34.501 119.048 35.007C119.048 35.2677 119.094 35.4977 119.186 35.697C119.293 35.8964 119.446 36.0804 119.646 36.249C119.86 36.4024 120.121 36.548 120.428 36.686C120.734 36.824 121.102 36.9697 121.532 37.123C122.099 37.3377 122.605 37.5524 123.05 37.767C123.494 37.9664 123.87 38.204 124.177 38.48C124.499 38.756 124.744 39.0934 124.913 39.492C125.081 39.8754 125.166 40.3507 125.166 40.918C125.166 42.022 124.752 42.8577 123.924 43.425C123.111 43.9924 121.946 44.276 120.428 44.276C119.37 44.276 118.542 44.184 117.944 44C117.346 43.8314 116.939 43.701 116.725 43.609L117.116 41.769C117.361 41.861 117.752 41.999 118.289 42.183C118.825 42.367 119.538 42.459 120.428 42.459Z" fill="black"/>
<path d="M127.242 38.043C127.242 36.985 127.396 36.065 127.702 35.283C128.009 34.4857 128.415 33.8264 128.921 33.305C129.427 32.7837 130.01 32.3927 130.669 32.132C131.329 31.8714 132.003 31.741 132.693 31.741C134.303 31.741 135.538 32.247 136.396 33.259C137.255 34.2557 137.684 35.7814 137.684 37.836C137.684 37.928 137.684 38.0507 137.684 38.204C137.684 38.342 137.677 38.4724 137.661 38.595H129.473C129.565 39.837 129.926 40.78 130.554 41.424C131.183 42.068 132.164 42.39 133.498 42.39C134.25 42.39 134.878 42.3287 135.384 42.206C135.906 42.068 136.297 41.9377 136.557 41.815L136.856 43.609C136.596 43.747 136.136 43.8927 135.476 44.046C134.832 44.1994 134.096 44.276 133.268 44.276C132.226 44.276 131.321 44.1227 130.554 43.816C129.803 43.494 129.182 43.057 128.691 42.505C128.201 41.953 127.833 41.3014 127.587 40.55C127.357 39.7834 127.242 38.9477 127.242 38.043ZM135.453 36.87C135.469 35.904 135.223 35.1144 134.717 34.501C134.227 33.8724 133.544 33.558 132.67 33.558C132.18 33.558 131.743 33.6577 131.359 33.857C130.991 34.041 130.677 34.2864 130.416 34.593C130.156 34.8997 129.949 35.2524 129.795 35.651C129.657 36.0497 129.565 36.456 129.519 36.87H135.453Z" fill="black"/>
<path d="M145.173 31.787C145.357 31.787 145.564 31.8024 145.794 31.833C146.039 31.8484 146.277 31.879 146.507 31.925C146.737 31.9557 146.944 31.994 147.128 32.04C147.327 32.0707 147.473 32.1014 147.565 32.132L147.197 33.995C147.028 33.9337 146.745 33.8647 146.346 33.788C145.963 33.696 145.464 33.65 144.851 33.65C144.452 33.65 144.054 33.696 143.655 33.788C143.272 33.8647 143.019 33.9184 142.896 33.949V44H140.757V32.546C141.263 32.362 141.892 32.1934 142.643 32.04C143.394 31.8714 144.238 31.787 145.173 31.787Z" fill="black"/>
<rect x="0.5" y="0.5" width="181" height="55" rx="1.5" stroke="#BDBDBD"/>
</svg>
