<svg width="1012" height="506" viewBox="0 0 1012 506" fill="none" xmlns="http://www.w3.org/2000/svg">
<g clip-path="url(#clip0_210_509)">
<path d="M596.93 252.525C596.669 252.701 596.409 252.865 596.141 253.028L595.844 253.205L595.589 253.344L577.991 263.504C575.624 264.882 573.05 266.381 570.367 267.941C563.847 271.735 556.715 275.868 550.469 279.491C550.456 285.834 550.438 292.953 550.42 299.678L540.343 293.864L540.282 293.974L523.662 284.377V269.089C523.929 265.089 526.521 261.715 530.097 260.306L543.621 252.5L558.263 244.046L558.201 243.936L570.251 236.981L577.111 233.024C586.355 226.183 591.035 215.076 589.968 204.078C589.949 203.896 589.931 203.714 589.907 203.532C590.004 203.593 590.1 203.666 590.198 203.732C589.773 199.296 588.414 194.877 586.034 190.762C578.914 178.429 564.861 172.602 551.646 175.345V173.767C572.722 163.067 598.885 170.878 611.037 191.915C611.037 191.921 611.037 191.921 611.043 191.927C623.226 213.019 616.847 239.664 596.93 252.525V252.525Z" fill="url(#paint0_linear_210_509)"/>
<path d="M596.93 252.525C596.669 252.701 596.409 252.865 596.141 253.028L595.844 253.205L595.589 253.344L577.991 263.504C575.624 264.882 573.05 266.381 570.367 267.941C563.847 271.735 556.715 275.868 550.469 279.491C550.456 285.834 550.438 292.953 550.42 299.678L540.343 293.864L540.282 293.974L523.662 284.377V269.089C523.929 265.089 526.521 261.715 530.097 260.306L543.621 252.5L558.263 244.046L558.201 243.936L570.251 236.981L577.111 233.024C586.355 226.183 591.035 215.076 589.968 204.078C589.949 203.896 589.931 203.714 589.907 203.532C590.004 203.593 590.1 203.666 590.198 203.732C589.773 199.296 588.414 194.877 586.034 190.762C578.914 178.429 564.861 172.602 551.646 175.345V173.767C572.722 163.067 598.885 170.878 611.037 191.915C611.037 191.921 611.037 191.921 611.043 191.927C623.226 213.019 616.847 239.664 596.93 252.525V252.525Z" fill="url(#paint1_linear_210_509)"/>
<path d="M549.363 330.062C545.576 343.615 533.144 353.557 518.381 353.557C513.87 353.557 509.572 352.622 505.676 350.947C515.394 346.261 522.394 336.829 523.662 325.655V315.271C527.061 317.218 530.333 319.094 533.289 320.782L549.363 330.062Z" fill="url(#paint2_linear_210_509)"/>
<path d="M549.363 330.062C545.576 343.615 533.144 353.557 518.381 353.557C513.87 353.557 509.572 352.622 505.676 350.947C515.394 346.261 522.394 336.829 523.662 325.655V315.271C527.061 317.218 530.333 319.094 533.289 320.782L549.363 330.062Z" fill="url(#paint3_linear_210_509)"/>
<path d="M590.199 203.732C590.102 203.665 590.005 203.592 589.908 203.532C589.428 199.277 588.087 195.053 585.804 191.107C578.726 178.847 564.795 173.014 551.646 175.643V175.345C564.862 172.602 578.914 178.428 586.034 190.762C588.414 194.877 589.774 199.295 590.199 203.732V203.732Z" fill="url(#paint4_linear_210_509)"/>
<path d="M441.155 237.229C438.393 238.831 435.735 240.379 433.307 241.793L415.6 252.014C414.987 251.383 414.404 250.722 413.851 250.048C413.706 249.878 413.578 249.714 413.445 249.538C413.257 249.301 413.068 249.059 412.898 248.81C405.523 238.838 404.315 225.042 410.913 213.619C413.287 209.504 416.431 206.117 420.061 203.525C420.049 203.659 420.037 203.786 420.031 203.92C419.114 214.79 423.782 225.715 432.918 232.471L441.155 237.229ZM550.535 330.741C550.262 355.226 530.018 374.993 505.069 374.999H505.057C480.381 374.999 460.301 355.674 459.585 331.566V310.59C459.573 307.514 459.56 304.132 459.548 300.624C459.53 293.402 459.512 285.62 459.494 278.762C453.769 275.441 447.311 271.691 441.277 268.183L453.09 261.361L453.029 261.258L467.901 252.669L480.727 260.074L481.911 260.754C485.244 262.987 486.87 266.914 486.3 270.714V303.24H486.421V315.998L486.427 325.072C487.726 336.495 495.011 346.097 505.069 350.679C505.269 350.77 505.47 350.861 505.676 350.945C509.573 352.621 513.871 353.556 518.381 353.556C533.144 353.556 545.576 343.614 549.364 330.06L549.454 330.115L550.535 330.741ZM472.417 329.721H471.003C471.233 329.734 471.47 329.745 471.713 329.745C471.95 329.745 472.187 329.734 472.417 329.721ZM481.887 319.573C481.887 319.342 481.875 319.112 481.863 318.887V320.252C481.875 320.028 481.887 319.797 481.887 319.573Z" fill="url(#paint5_linear_210_509)"/>
<path d="M441.155 237.229C438.393 238.831 435.735 240.379 433.307 241.793L415.6 252.014C414.987 251.383 414.404 250.722 413.851 250.048C413.706 249.878 413.578 249.714 413.445 249.538C413.257 249.301 413.068 249.059 412.898 248.81C405.523 238.838 404.315 225.042 410.913 213.619C413.287 209.504 416.431 206.117 420.061 203.525C420.049 203.659 420.037 203.786 420.031 203.92C419.114 214.79 423.782 225.715 432.918 232.471L441.155 237.229ZM550.535 330.741C550.262 355.226 530.018 374.993 505.069 374.999H505.057C480.381 374.999 460.301 355.674 459.585 331.566V310.59C459.573 307.514 459.56 304.132 459.548 300.624C459.53 293.402 459.512 285.62 459.494 278.762C453.769 275.441 447.311 271.691 441.277 268.183L453.09 261.361L453.029 261.258L467.901 252.669L480.727 260.074L481.911 260.754C485.244 262.987 486.87 266.914 486.3 270.714V303.24H486.421V315.998L486.427 325.072C487.726 336.495 495.011 346.097 505.069 350.679C505.269 350.77 505.47 350.861 505.676 350.945C509.573 352.621 513.871 353.556 518.381 353.556C533.144 353.556 545.576 343.614 549.364 330.06L549.454 330.115L550.535 330.741ZM472.417 329.721H471.003C471.233 329.734 471.47 329.745 471.713 329.745C471.95 329.745 472.187 329.734 472.417 329.721ZM481.887 319.573C481.887 319.342 481.875 319.112 481.863 318.887V320.252C481.875 320.028 481.887 319.797 481.887 319.573Z" fill="url(#paint6_linear_210_509)"/>
<path d="M472.417 329.722C472.187 329.734 471.95 329.746 471.713 329.746C471.47 329.746 471.234 329.734 471.003 329.722H472.417V329.722Z" fill="url(#paint7_linear_210_509)"/>
<path d="M481.887 319.574C481.887 319.798 481.874 320.029 481.862 320.253V318.888C481.874 319.113 481.887 319.343 481.887 319.574Z" fill="url(#paint8_linear_210_509)"/>
<path d="M459.584 310.591V329.673C446.448 332.271 432.554 326.432 425.488 314.19C423.23 310.287 421.894 306.099 421.396 301.886C430.32 307.956 441.981 309.298 452.294 304.812L459.548 300.624C459.56 304.133 459.572 307.513 459.584 310.591ZM611.814 313.601V313.613C599.473 334.984 572.679 342.71 551.44 331.263L550.535 330.742L549.455 330.116L549.364 330.061L533.29 320.782C530.334 319.094 527.062 317.218 523.663 315.271C521.781 314.19 519.863 313.092 517.945 311.993C517.344 311.647 516.743 311.301 516.148 310.961C513.702 309.554 511.274 308.157 508.925 306.81C508.397 306.506 507.875 306.209 507.359 305.912C506.793 305.584 506.235 305.263 505.683 304.947C499.631 308.424 492.766 312.37 486.422 315.999V303.241H486.301V285.184L500.105 277.215L501.288 276.535C504.888 274.763 509.107 275.322 512.112 277.712L523.663 284.377L540.284 293.973L540.344 293.863L550.422 299.678L559.254 304.782C569.798 309.371 581.756 307.859 590.752 301.444C590.904 301.334 591.05 301.231 591.195 301.122C591.189 301.237 591.177 301.353 591.164 301.468C594.794 298.877 597.946 295.49 600.318 291.374C607.603 278.762 605.369 263.266 595.845 253.204L596.142 253.027C596.409 252.863 596.67 252.699 596.931 252.523C617.447 265.192 624.15 292.236 611.814 313.6V313.601ZM555.294 320.679L554.59 321.91C554.718 321.716 554.846 321.516 554.966 321.309C555.088 321.103 555.191 320.89 555.294 320.679Z" fill="url(#paint9_linear_210_509)"/>
<path d="M555.294 320.679C555.191 320.891 555.088 321.103 554.966 321.309C554.845 321.516 554.718 321.716 554.59 321.91L555.294 320.679Z" fill="url(#paint10_linear_210_509)"/>
<path d="M600.317 291.375C597.944 295.49 594.793 298.877 591.163 301.469C591.176 301.353 591.187 301.238 591.194 301.123C594.636 298.574 597.622 295.296 599.899 291.351C607.146 278.805 604.973 263.413 595.588 253.344L595.844 253.205C605.367 263.268 607.601 278.763 600.317 291.375V291.375Z" fill="url(#paint11_linear_210_509)"/>
<path d="M481.887 319.574C481.887 319.798 481.874 320.029 481.862 320.253V318.888C481.874 319.113 481.887 319.343 481.887 319.574Z" fill="#BF5082"/>
<path d="M472.417 329.722C472.187 329.734 471.95 329.746 471.713 329.746C471.47 329.746 471.234 329.734 471.003 329.722H472.417V329.722Z" fill="#BF5082"/>
<path d="M524.925 201.76V219.889L510.89 227.992L509.707 228.672C506.107 230.444 501.894 229.885 498.89 227.494L487.629 220.994L470.718 211.234L470.657 211.337L460.872 205.693L451.742 200.424C441.198 195.836 429.239 197.341 420.243 203.763C420.171 203.811 420.104 203.866 420.031 203.92C420.037 203.787 420.049 203.659 420.061 203.526C416.431 206.117 413.287 209.504 410.913 213.619C404.315 225.042 405.523 238.838 412.898 248.81C413.068 249.059 413.256 249.302 413.445 249.538C413.578 249.714 413.706 249.878 413.851 250.048C414.392 250.734 414.968 251.396 415.575 252.033L415.15 252.276C414.865 252.452 414.58 252.634 414.294 252.822C393.601 240.216 386.808 213.049 399.18 191.599L399.186 191.593C411.526 170.223 438.314 162.496 459.554 173.943L460.683 174.593L461.782 175.23L461.819 175.248L477.71 184.425C480.752 186.161 484.127 188.097 487.629 190.1C493.523 193.487 499.77 197.074 505.318 200.26C511.442 196.74 518.399 192.74 524.803 189.074V201.76H524.925Z" fill="url(#paint12_linear_210_509)"/>
<path d="M420.061 203.525C420.049 203.659 420.037 203.786 420.031 203.92C416.498 206.487 413.42 209.819 411.096 213.856C404.552 225.187 405.693 238.85 412.898 248.81C405.523 238.838 404.315 225.042 410.913 213.619C413.287 209.504 416.431 206.117 420.061 203.525V203.525Z" fill="url(#paint13_linear_210_509)"/>
<path d="M590.198 203.732C590.101 203.665 590.004 203.592 589.907 203.532C580.954 197.28 569.135 195.854 558.7 200.394L551.677 204.442C551.671 200.91 551.659 197.505 551.646 194.409V175.345C564.862 172.602 578.914 178.428 586.034 190.762C588.413 194.877 589.774 199.295 590.198 203.732V203.732Z" fill="url(#paint14_linear_210_509)"/>
<path d="M590.198 203.732C590.101 203.665 590.004 203.592 589.907 203.532C580.954 197.28 569.135 195.854 558.7 200.394L551.677 204.442C551.671 200.91 551.659 197.505 551.646 194.409V175.345C564.862 172.602 578.914 178.428 586.034 190.762C588.413 194.877 589.774 199.295 590.198 203.732V203.732Z" fill="url(#paint15_linear_210_509)"/>
<path d="M506.271 154.041C506.151 154.096 506.029 154.15 505.913 154.211C505.676 154.102 505.434 153.999 505.191 153.895C504.663 153.677 504.129 153.47 503.588 153.282C503.339 153.191 503.091 153.106 502.842 153.027C502.532 152.924 502.216 152.827 501.901 152.736C501.682 152.669 501.47 152.609 501.251 152.554C500.687 152.396 500.116 152.263 499.539 152.141C499.054 152.038 498.568 151.947 498.076 151.868C497.979 151.85 497.882 151.832 497.785 151.82C497.573 151.789 497.354 151.753 497.136 151.729C496.881 151.692 496.62 151.662 496.359 151.631C495.205 151.51 494.034 151.443 492.844 151.443C492.51 151.443 492.182 151.449 491.854 151.461C491.8 151.461 491.745 151.468 491.691 151.468C491.612 151.468 491.533 151.468 491.46 151.474C491.084 151.486 490.713 151.51 490.343 151.54C490.027 151.565 489.718 151.589 489.408 151.625C489.366 151.631 489.323 151.631 489.281 151.637C489.153 151.65 489.026 151.668 488.904 151.686C488.528 151.729 488.158 151.783 487.787 151.838C487.435 151.892 487.083 151.953 486.731 152.026C486.719 152.026 486.713 152.032 486.701 152.032C486.403 152.087 486.106 152.147 485.821 152.214C485.687 152.244 485.554 152.275 485.42 152.305C485.39 152.311 485.353 152.317 485.317 152.329C485.038 152.396 484.758 152.469 484.485 152.542C484.364 152.572 484.248 152.603 484.133 152.639C483.817 152.724 483.502 152.821 483.192 152.918C482.87 153.015 482.555 153.124 482.239 153.234C482.142 153.27 482.039 153.301 481.942 153.343C481.899 153.355 481.863 153.373 481.82 153.385C481.523 153.489 481.232 153.598 480.946 153.713C480.928 153.719 480.916 153.725 480.898 153.731C480.546 153.877 480.2 154.023 479.854 154.175C479.835 154.181 479.817 154.193 479.793 154.199C479.495 154.332 479.198 154.472 478.901 154.618C478.785 154.672 478.67 154.727 478.561 154.781C478.342 154.891 478.124 155 477.911 155.115C477.784 155.182 477.656 155.249 477.529 155.322C477.504 155.328 477.48 155.34 477.456 155.358C477.201 155.492 476.952 155.637 476.703 155.783C476.387 155.959 476.078 156.147 475.774 156.341C475.404 156.572 475.046 156.809 474.688 157.051C474.378 157.27 474.069 157.488 473.765 157.713C473.474 157.925 473.188 158.144 472.909 158.369C472.842 158.423 472.776 158.472 472.709 158.526C472.454 158.727 472.205 158.933 471.962 159.145C471.926 159.176 471.883 159.212 471.847 159.243C471.641 159.425 471.434 159.601 471.234 159.789C471.203 159.813 471.173 159.837 471.149 159.862C471.015 159.983 470.882 160.104 470.754 160.226C470.257 160.699 469.777 161.185 469.31 161.682C469.073 161.937 468.842 162.192 468.618 162.453C468.417 162.678 468.223 162.908 468.035 163.139C467.962 163.218 467.901 163.297 467.834 163.382C467.628 163.637 467.428 163.892 467.227 164.153C467.197 164.189 467.173 164.226 467.142 164.268C466.912 164.572 466.687 164.881 466.469 165.197C466.463 165.203 466.457 165.209 466.457 165.215C466.28 165.464 466.104 165.719 465.941 165.974C465.904 166.034 465.862 166.095 465.825 166.156C465.795 166.198 465.771 166.235 465.746 166.271C465.576 166.538 465.412 166.793 465.255 167.066C465.255 167.072 465.249 167.084 465.242 167.09C465.23 167.109 465.218 167.133 465.206 167.151C465.164 167.218 465.127 167.285 465.091 167.351C464.921 167.631 464.757 167.916 464.599 168.207C464.593 168.219 464.581 168.237 464.575 168.25C464.423 168.529 464.277 168.808 464.132 169.093C464.095 169.166 464.065 169.233 464.028 169.3C463.883 169.591 463.743 169.888 463.604 170.186C468.618 158.975 479.878 151.164 492.959 151.164C497.706 151.164 502.216 152.196 506.271 154.041V154.041Z" fill="url(#paint16_linear_210_509)"/>
<path d="M558.202 243.936L558.263 244.045L543.622 252.5L530.498 244.925L529.32 244.239C525.988 242.006 524.361 238.079 524.926 234.279V201.759H524.805V179.921C523.505 168.499 516.221 158.897 506.163 154.32C506.077 154.284 505.999 154.248 505.914 154.211C506.029 154.15 506.151 154.096 506.272 154.041C502.217 152.196 497.707 151.164 492.96 151.164C479.879 151.164 468.618 158.976 463.604 170.186C463.495 170.41 463.398 170.641 463.301 170.872V170.878C463.295 170.884 463.289 170.896 463.289 170.902C463.21 171.072 463.143 171.236 463.076 171.406C463.064 171.43 463.052 171.454 463.046 171.479C462.924 171.782 462.803 172.086 462.688 172.395C462.597 172.65 462.5 172.905 462.415 173.166C462.372 173.281 462.33 173.409 462.293 173.53C462.214 173.755 462.148 173.979 462.075 174.21C462.063 174.246 462.056 174.283 462.044 174.319C461.953 174.617 461.868 174.926 461.783 175.23L460.685 174.592C460.776 149.95 481.099 130.006 506.163 130H506.175C530.857 130 550.943 149.331 551.647 173.451V194.409C551.66 197.505 551.672 200.91 551.678 204.442C551.702 211.646 551.72 219.397 551.732 226.231C557.554 229.606 564.128 233.424 570.253 236.98L558.202 243.936Z" fill="url(#paint17_linear_210_509)"/>
<path d="M600.317 291.375C597.944 295.49 594.793 298.877 591.163 301.469C591.176 301.353 591.188 301.238 591.194 301.123C592.135 290.24 587.455 279.291 578.307 272.524L570.367 267.941C573.05 266.381 575.624 264.882 577.992 263.504L595.589 253.344L595.845 253.205C605.368 263.268 607.601 278.763 600.317 291.375V291.375Z" fill="url(#paint18_linear_210_509)"/>
<path d="M555.294 320.679C555.191 320.891 555.088 321.103 554.966 321.309C554.845 321.516 554.718 321.716 554.59 321.91L555.294 320.679Z" fill="#BF5082"/>
<path d="M492.959 151.164C479.878 151.164 468.617 158.975 463.603 170.186C463.494 170.41 463.397 170.641 463.3 170.872V170.878C463.294 170.884 463.288 170.896 463.288 170.902C463.209 171.072 463.142 171.236 463.075 171.406C463.063 171.43 463.051 171.454 463.045 171.479C462.559 172.699 462.146 173.955 461.819 175.248L477.71 184.425C480.752 186.161 484.127 188.097 487.629 190.1V179.648C488.91 168.365 496.037 158.848 505.913 154.211C506.028 154.15 506.15 154.096 506.271 154.041C502.216 152.196 497.706 151.164 492.959 151.164V151.164ZM487.629 220.993V236.209C487.362 240.215 484.77 243.584 481.201 244.992L467.901 252.67L453.029 261.258L453.09 261.361L441.277 268.183L434.181 272.28C424.936 279.114 420.262 290.228 421.324 301.225C421.348 301.443 421.372 301.668 421.397 301.886C421.894 306.099 423.23 310.287 425.488 314.19C432.554 326.432 446.449 332.271 459.585 329.673V331.567C438.527 342.219 412.401 334.407 400.26 313.383C400.254 313.383 400.254 313.376 400.254 313.376C388.089 292.303 394.433 265.701 414.295 252.821C414.58 252.633 414.865 252.451 415.15 252.275L415.575 252.032L415.6 252.014L433.307 241.793C435.735 240.379 438.393 238.831 441.155 237.228C447.608 233.478 454.65 229.387 460.823 225.806C460.835 219.487 460.853 212.398 460.872 205.692L470.657 211.336L470.718 211.233L487.629 220.993V220.993Z" fill="url(#paint19_linear_210_509)"/>
</g>
<rect x="662.5" y="361.5" width="237" height="27" rx="13.5" fill="#3D3D3D" stroke="black" stroke-width="3"/>
<rect x="662.5" y="361.5" width="177" height="27" rx="13.5" fill="#FF3838" stroke="black" stroke-width="3"/>
<rect x="811" y="271" width="60" height="150" rx="30" transform="rotate(90 811 271)" fill="#3D3D3D"/>
<path d="M783.5 290L794.5 301L783.5 312" stroke="#FF3838" stroke-width="2" stroke-linecap="round" stroke-linejoin="round"/>
<path d="M688.5 312L677.5 301L688.5 290" stroke="#FF3838" stroke-width="2" stroke-linecap="round" stroke-linejoin="round"/>
<rect x="762" y="295" width="12" height="12" rx="6" transform="rotate(90 762 295)" fill="#FF3838"/>
<rect x="741" y="295" width="12" height="12" rx="6" transform="rotate(90 741 295)" fill="#FF3838"/>
<rect x="722" y="295" width="12" height="12" rx="6" transform="rotate(90 722 295)" fill="#FF3838"/>
<rect x="661.5" y="181.5" width="177" height="57" rx="8.5" fill="#3D3D3D" stroke="black" stroke-width="3"/>
<rect x="665" y="185" width="90" height="50" rx="5" fill="#FF3838"/>
<rect x="841" y="271" width="60" height="60" rx="30" fill="#3D3D3D"/>
<rect width="9.6" height="9.6" rx="4.8" transform="matrix(-1 0 0 1 862.6 296.2)" fill="#FF3838"/>
<rect width="9.6" height="9.6" rx="4.8" transform="matrix(-1 0 0 1 889 296.2)" fill="#FF3838"/>
<rect width="9.6" height="9.6" rx="4.8" transform="matrix(-1 0 0 1 875.8 296.2)" fill="#FF3838"/>
<rect x="270" y="330" width="60" height="60" rx="10" fill="#3D3D3D"/>
<path d="M314 349.5L294.75 368.75L286 360" stroke="#FF3838" stroke-width="2" stroke-linecap="round" stroke-linejoin="round"/>
<path d="M210 189C210 183.477 214.477 179 220 179H320C325.523 179 330 183.477 330 189V290C330 295.523 325.523 300 320 300H220C214.477 300 210 295.523 210 290V189Z" fill="#3D3D3D"/>
<rect x="211.5" y="180.5" width="117" height="118" rx="8.5" stroke="black" stroke-width="3"/>
<rect x="223" y="203" width="93" height="10" rx="5" fill="#FF3838"/>
<rect x="223" y="219" width="93" height="10" rx="5" fill="#FF3838"/>
<rect x="223" y="235" width="93" height="10" rx="5" fill="#FF3838"/>
<rect x="223" y="251" width="93" height="10" rx="5" fill="#FF3838"/>
<rect x="255" y="267" width="61" height="10" rx="5" fill="#FF3838"/>
<rect x="181.5" y="91.5" width="147" height="57" rx="8.5" fill="#3D3D3D" stroke="black" stroke-width="3"/>
<rect x="207" y="105" width="98" height="30" rx="15" fill="#FF3838"/>
<rect x="90" y="30" width="60" height="150" rx="30" fill="#3D3D3D"/>
<path d="M109 57.5L120 46.5L131 57.5" stroke="#FF3838" stroke-width="2" stroke-linecap="round" stroke-linejoin="round"/>
<path d="M131 152.5L120 163.5L109 152.5" stroke="#FF3838" stroke-width="2" stroke-linecap="round" stroke-linejoin="round"/>
<rect x="114" y="79" width="12" height="12" rx="6" fill="#FF3838"/>
<rect x="114" y="100" width="12" height="12" rx="6" fill="#FF3838"/>
<rect x="114" y="119" width="12" height="12" rx="6" fill="#FF3838"/>
<rect x="631.5" y="91.5" width="57" height="57" rx="28.5" fill="#3D3D3D" stroke="black" stroke-width="3"/>
<rect x="639" y="99" width="41" height="42" rx="20.5" fill="#FF3838"/>
<rect x="328.5" y="448.5" width="237" height="27" rx="13.5" transform="rotate(180 328.5 448.5)" fill="#3D3D3D" stroke="black" stroke-width="3"/>
<rect x="328.5" y="448.5" width="177" height="27" rx="13.5" transform="rotate(180 328.5 448.5)" fill="#FF3838" stroke="black" stroke-width="3"/>
<rect x="598.5" y="448.5" width="237" height="27" rx="13.5" transform="rotate(180 598.5 448.5)" fill="#3D3D3D" stroke="black" stroke-width="3"/>
<rect x="568.5" y="453.5" width="37" height="37" rx="18.5" transform="rotate(180 568.5 453.5)" fill="#FF3838" stroke="black" stroke-width="3"/>
<rect x="720" y="90" width="60" height="60" rx="10" fill="#3D3D3D"/>
<path d="M764 109.5L744.75 128.75L736 120" stroke="#FF3838" stroke-width="2" stroke-linecap="round" stroke-linejoin="round"/>
<rect x="662.5" y="421.5" width="147" height="57" rx="8.5" fill="#3D3D3D" stroke="black" stroke-width="3"/>
<rect x="688" y="435" width="98" height="30" rx="15" fill="#FF3838"/>
<rect x="101" y="221" width="79" height="79" rx="39.5" fill="#3D3D3D"/>
<rect width="12.64" height="12.64" rx="6.32" transform="matrix(-1 0 0 1 129.44 254.18)" fill="#FF3838"/>
<rect width="12.64" height="12.64" rx="6.32" transform="matrix(-1 0 0 1 164.2 254.18)" fill="#FF3838"/>
<rect width="12.64" height="12.64" rx="6.32" transform="matrix(-1 0 0 1 146.82 254.18)" fill="#FF3838"/>
<rect x="510" y="30" width="60" height="150" rx="30" transform="rotate(90 510 30)" fill="#3D3D3D"/>
<path d="M482.5 49L493.5 60L482.5 71" stroke="#FF3838" stroke-width="2" stroke-linecap="round" stroke-linejoin="round"/>
<path d="M387.5 71L376.5 60L387.5 49" stroke="#FF3838" stroke-width="2" stroke-linecap="round" stroke-linejoin="round"/>
<rect x="461" y="54" width="12" height="12" rx="6" transform="rotate(90 461 54)" fill="#FF3838"/>
<rect x="440" y="54" width="12" height="12" rx="6" transform="rotate(90 440 54)" fill="#FF3838"/>
<rect x="421" y="54" width="12" height="12" rx="6" transform="rotate(90 421 54)" fill="#FF3838"/>
<rect x="181.5" y="331.5" width="57" height="57" rx="28.5" fill="#3D3D3D" stroke="black" stroke-width="3"/>
<rect x="189" y="339" width="41" height="42" rx="20.5" fill="#FF3838"/>
<rect x="811.5" y="91.5" width="147" height="57" rx="8.5" fill="#3D3D3D" stroke="black" stroke-width="3"/>
<rect x="837" y="105" width="98" height="30" rx="15" fill="#FF3838"/>
<rect x="541.5" y="31.5" width="237" height="27" rx="13.5" fill="#3D3D3D" stroke="black" stroke-width="3"/>
<rect x="571.5" y="26.5" width="37" height="37" rx="18.5" fill="#FF3838" stroke="black" stroke-width="3"/>
<rect x="181.5" y="31.5" width="27" height="27" rx="13.5" fill="#FF3838" stroke="black" stroke-width="3"/>
<rect x="226.5" y="31.5" width="27" height="27" rx="13.5" fill="#FF3838" stroke="black" stroke-width="3"/>
<rect x="271.5" y="31.5" width="27" height="27" rx="13.5" fill="#FF3838" stroke="black" stroke-width="3"/>
<rect x="61.5" y="332.5" width="87" height="57" rx="8.5" fill="#3D3D3D" stroke="black" stroke-width="3"/>
<rect x="76.2002" y="346" width="58.8" height="30" rx="15" fill="#FF3838"/>
<defs>
<linearGradient id="paint0_linear_210_509" x1="570.644" y1="170.995" x2="570.067" y2="300.244" gradientUnits="userSpaceOnUse">
<stop stop-color="#7B83EB"/>
<stop offset="1" stop-color="#5961C3"/>
</linearGradient>
<linearGradient id="paint1_linear_210_509" x1="625.441" y1="258.029" x2="513.242" y2="245.852" gradientUnits="userSpaceOnUse">
<stop stop-color="#304352"/>
<stop offset="1" stop-color="#D7D2CC"/>
</linearGradient>
<linearGradient id="paint2_linear_210_509" x1="521.632" y1="358.016" x2="530.037" y2="317.236" gradientUnits="userSpaceOnUse">
<stop stop-color="#7B83EB"/>
<stop offset="1" stop-color="#5961C3"/>
</linearGradient>
<linearGradient id="paint3_linear_210_509" x1="553.197" y1="341.355" x2="501.734" y2="332.454" gradientUnits="userSpaceOnUse">
<stop stop-color="#304352"/>
<stop offset="1" stop-color="#D7D2CC"/>
</linearGradient>
<linearGradient id="paint4_linear_210_509" x1="560.867" y1="171.28" x2="583.511" y2="204.949" gradientUnits="userSpaceOnUse">
<stop stop-color="#438881"/>
<stop offset="0.0534" stop-color="#458D85"/>
<stop offset="0.1299" stop-color="#4B9B91"/>
<stop offset="0.2199" stop-color="#57B3A7"/>
<stop offset="0.2504" stop-color="#5DBDB0"/>
<stop offset="0.2628" stop-color="#59B5A9"/>
<stop offset="0.3052" stop-color="#4EA197"/>
<stop offset="0.3488" stop-color="#47938A"/>
<stop offset="0.3939" stop-color="#448B83"/>
<stop offset="0.4428" stop-color="#438881"/>
<stop offset="0.6445" stop-color="#2D5C56"/>
<stop offset="0.7996" stop-color="#293236"/>
<stop offset="1" stop-color="#293236"/>
</linearGradient>
<linearGradient id="paint5_linear_210_509" x1="437.292" y1="210.747" x2="525.241" y2="384.2" gradientUnits="userSpaceOnUse">
<stop stop-color="#7B83EB"/>
<stop offset="1" stop-color="#5961C3"/>
</linearGradient>
<linearGradient id="paint6_linear_210_509" x1="563.164" y1="320.351" x2="391.318" y2="298.484" gradientUnits="userSpaceOnUse">
<stop stop-color="#304352"/>
<stop offset="1" stop-color="#D7D2CC"/>
</linearGradient>
<linearGradient id="paint7_linear_210_509" x1="471.537" y1="329.466" x2="472.651" y2="331.112" gradientUnits="userSpaceOnUse">
<stop stop-color="#438881"/>
<stop offset="0.0534" stop-color="#458D85"/>
<stop offset="0.1299" stop-color="#4B9B91"/>
<stop offset="0.2199" stop-color="#57B3A7"/>
<stop offset="0.2504" stop-color="#5DBDB0"/>
<stop offset="0.2628" stop-color="#59B5A9"/>
<stop offset="0.3052" stop-color="#4EA197"/>
<stop offset="0.3488" stop-color="#47938A"/>
<stop offset="0.3939" stop-color="#448B83"/>
<stop offset="0.4428" stop-color="#438881"/>
<stop offset="0.6445" stop-color="#2D5C56"/>
<stop offset="0.7996" stop-color="#293236"/>
<stop offset="1" stop-color="#293236"/>
</linearGradient>
<linearGradient id="paint8_linear_210_509" x1="481.614" y1="319.204" x2="483.204" y2="321.57" gradientUnits="userSpaceOnUse">
<stop stop-color="#438881"/>
<stop offset="0.0534" stop-color="#458D85"/>
<stop offset="0.1299" stop-color="#4B9B91"/>
<stop offset="0.2199" stop-color="#57B3A7"/>
<stop offset="0.2504" stop-color="#5DBDB0"/>
<stop offset="0.2628" stop-color="#59B5A9"/>
<stop offset="0.3052" stop-color="#4EA197"/>
<stop offset="0.3488" stop-color="#47938A"/>
<stop offset="0.3939" stop-color="#448B83"/>
<stop offset="0.4428" stop-color="#438881"/>
<stop offset="0.6445" stop-color="#2D5C56"/>
<stop offset="0.7996" stop-color="#293236"/>
<stop offset="1" stop-color="#293236"/>
</linearGradient>
<linearGradient id="paint9_linear_210_509" x1="621" y1="313" x2="531.156" y2="206.584" gradientUnits="userSpaceOnUse">
<stop stop-color="#232526"/>
<stop offset="1" stop-color="#414345"/>
</linearGradient>
<linearGradient id="paint10_linear_210_509" x1="554.784" y1="321.067" x2="555.257" y2="321.765" gradientUnits="userSpaceOnUse">
<stop stop-color="#2EAAB5"/>
<stop offset="0.0998" stop-color="#3BAFBC"/>
<stop offset="0.2426" stop-color="#58BFCE"/>
<stop offset="0.2504" stop-color="#5AC0CF"/>
<stop offset="0.3205" stop-color="#47A6B9"/>
<stop offset="0.3947" stop-color="#3A92A8"/>
<stop offset="0.4711" stop-color="#33849C"/>
<stop offset="0.55" stop-color="#2F7C94"/>
<stop offset="0.6357" stop-color="#2E7A92"/>
<stop offset="0.8344" stop-color="#0D2A3C"/>
<stop offset="1" stop-color="#08151E"/>
</linearGradient>
<linearGradient id="paint11_linear_210_509" x1="584.443" y1="263.479" x2="612.386" y2="305.022" gradientUnits="userSpaceOnUse">
<stop stop-color="#2EAAB5"/>
<stop offset="0.0998" stop-color="#3BAFBC"/>
<stop offset="0.2426" stop-color="#58BFCE"/>
<stop offset="0.2504" stop-color="#5AC0CF"/>
<stop offset="0.3205" stop-color="#47A6B9"/>
<stop offset="0.3947" stop-color="#3A92A8"/>
<stop offset="0.4711" stop-color="#33849C"/>
<stop offset="0.55" stop-color="#2F7C94"/>
<stop offset="0.6357" stop-color="#2E7A92"/>
<stop offset="0.8344" stop-color="#0D2A3C"/>
<stop offset="1" stop-color="#08151E"/>
</linearGradient>
<linearGradient id="paint12_linear_210_509" x1="536.5" y1="226" x2="385" y2="190" gradientUnits="userSpaceOnUse">
<stop stop-color="#304352"/>
<stop offset="1" stop-color="#D7D2CC"/>
</linearGradient>
<linearGradient id="paint13_linear_210_509" x1="413" y1="166" x2="437.657" y2="206.813" gradientUnits="userSpaceOnUse">
<stop stop-color="#304352"/>
<stop offset="1" stop-color="#D7D2CC"/>
</linearGradient>
<linearGradient id="paint14_linear_210_509" x1="535.358" y1="198.716" x2="582.098" y2="189.442" gradientUnits="userSpaceOnUse">
<stop stop-color="#7B83EB"/>
<stop offset="1" stop-color="#5961C3"/>
</linearGradient>
<linearGradient id="paint15_linear_210_509" x1="539" y1="200.5" x2="632.986" y2="171.384" gradientUnits="userSpaceOnUse">
<stop stop-color="#304352"/>
<stop offset="1" stop-color="#D7D2CC"/>
</linearGradient>
<linearGradient id="paint16_linear_210_509" x1="480.242" y1="155.137" x2="501.672" y2="186.993" gradientUnits="userSpaceOnUse">
<stop stop-color="#2EAAB5"/>
<stop offset="0.0998" stop-color="#3BAFBC"/>
<stop offset="0.2426" stop-color="#58BFCE"/>
<stop offset="0.2504" stop-color="#5AC0CF"/>
<stop offset="0.3205" stop-color="#47A6B9"/>
<stop offset="0.3947" stop-color="#3A92A8"/>
<stop offset="0.4711" stop-color="#33849C"/>
<stop offset="0.55" stop-color="#2F7C94"/>
<stop offset="0.6357" stop-color="#2E7A92"/>
<stop offset="0.8344" stop-color="#0D2A3C"/>
<stop offset="1" stop-color="#08151E"/>
</linearGradient>
<linearGradient id="paint17_linear_210_509" x1="565.5" y1="253" x2="499" y2="119" gradientUnits="userSpaceOnUse">
<stop stop-color="#232526"/>
<stop offset="1" stop-color="#414345"/>
</linearGradient>
<linearGradient id="paint18_linear_210_509" x1="581" y1="249.5" x2="624.245" y2="315.474" gradientUnits="userSpaceOnUse">
<stop stop-color="#232526"/>
<stop offset="1" stop-color="#414345"/>
</linearGradient>
<linearGradient id="paint19_linear_210_509" x1="420.5" y1="309" x2="433.002" y2="169.026" gradientUnits="userSpaceOnUse">
<stop stop-color="#232526"/>
<stop offset="1" stop-color="#414345"/>
</linearGradient>
<clipPath id="clip0_210_509">
<rect width="225" height="245" fill="white" transform="translate(393 130)"/>
</clipPath>
</defs>
</svg>
