<svg width="512" height="512" viewBox="0 0 512 512" fill="none" xmlns="http://www.w3.org/2000/svg">
<g clip-path="url(#clip0_522_244)">
<g filter="url(#filter0_dddddddd_522_244)">
<rect x="74" y="100" width="363" height="312.231" rx="9" fill="#333333"/>
<path d="M74 109C74 104.029 78.0294 100 83 100H428C432.971 100 437 104.029 437 109V143.154H74V109Z" fill="#444444"/>
<path d="M74 308.154H437V403.231C437 408.201 432.971 412.231 428 412.231H83C78.0294 412.231 74 408.201 74 403.231V308.154Z" fill="#444444"/>
<rect x="101.923" y="157.115" width="21.5769" height="12.6923" rx="6.34614" fill="#444444"/>
<rect x="136.192" y="157.115" width="50.7692" height="12.6923" rx="6.34614" fill="#B670CA"/>
<rect x="136.192" y="178.692" width="50.7692" height="12.6923" rx="6.34615" fill="#B670CA"/>
<rect x="136.192" y="200.269" width="50.7692" height="12.6923" rx="6.34616" fill="#B670CA"/>
<rect x="136.192" y="221.846" width="50.7692" height="12.6923" rx="6.34614" fill="#B670CA"/>
<rect x="151.423" y="265" width="50.7692" height="12.6923" rx="6.34615" fill="#B670CA"/>
<rect x="194.577" y="178.692" width="50.7694" height="12.6923" rx="6.34615" fill="#E4BF7A"/>
<rect x="194.577" y="221.846" width="50.7694" height="12.6923" rx="6.34614" fill="#E4BF7A"/>
<rect x="285.962" y="221.846" width="50.7692" height="12.6923" rx="6.34614" fill="#E4BF7A"/>
<rect x="344.346" y="221.846" width="50.7691" height="12.6923" rx="6.34614" fill="#D26B72"/>
<rect x="143.808" y="243.423" width="50.7693" height="12.6924" rx="6.3462" fill="#D26B72"/>
<rect x="159.038" y="286.577" width="50.7692" height="12.6923" rx="6.34614" fill="#D26B72"/>
<rect x="110.808" y="337.346" width="50.7691" height="12.6923" fill="white"/>
<rect x="110.808" y="356.385" width="50.7691" height="12.6923" fill="#98C178"/>
<rect x="169.192" y="337.346" width="33" height="12.6923" fill="#CCCCCC"/>
<rect x="209.808" y="337.346" width="58.3846" height="12.6923" fill="#CCCCCC"/>
<rect x="402.731" y="221.846" width="19.0383" height="12.6923" rx="6.34614" fill="#A8ACB8"/>
<rect x="235.192" y="243.423" width="19.0389" height="12.6924" rx="6.3462" fill="#A8ACB8"/>
<rect x="209.808" y="265" width="19.0385" height="12.6923" rx="6.34615" fill="#A8ACB8"/>
<rect x="225.039" y="157.115" width="25.3849" height="12.6923" rx="6.34614" fill="#B670CA"/>
<rect x="252.962" y="178.692" width="25.3845" height="12.6923" rx="6.34615" fill="#B670CA"/>
<rect x="252.962" y="221.846" width="25.3845" height="12.6923" rx="6.34614" fill="#B670CA"/>
<rect x="202.192" y="243.423" width="25.3848" height="12.6924" rx="6.3462" fill="#B670CA"/>
<rect x="311.346" y="157.115" width="25.3846" height="12.6923" rx="6.34614" fill="#B670CA"/>
<rect x="258.038" y="157.115" width="45.6923" height="12.6923" rx="6.34614" fill="#E4BF7A"/>
<rect x="344.346" y="157.115" width="45.6928" height="12.6923" rx="6.34614" fill="#98C178"/>
<rect x="285.962" y="178.692" width="45.6923" height="12.6923" rx="6.34615" fill="#98C178"/>
<rect x="194.577" y="157.115" width="22.846" height="12.6923" rx="6.34614" fill="#56B5C1"/>
<rect x="101.923" y="178.692" width="21.5769" height="12.6923" rx="6.34615" fill="#444444"/>
<rect x="101.923" y="200.269" width="21.5769" height="12.6923" rx="6.34616" fill="#444444"/>
<rect x="101.923" y="221.846" width="21.5769" height="12.6923" rx="6.34614" fill="#444444"/>
<rect x="101.923" y="243.423" width="21.5769" height="12.6924" rx="6.3462" fill="#444444"/>
<rect x="101.923" y="265" width="21.5769" height="12.6923" rx="6.34615" fill="#444444"/>
<rect x="101.923" y="286.577" width="21.5769" height="12.6923" rx="6.34614" fill="#444444"/>
<rect x="74" y="308.154" width="363" height="15.2308" fill="#4C4C4C"/>
<path d="M98.7122 338.079V339.747H97.8533V338.079H98.7122ZM98.6062 347.188V348.682H97.7529V347.188H98.6062ZM99.4485 345.386C99.4485 345.17 99.4038 344.983 99.3146 344.823C99.2291 344.659 99.0878 344.512 98.8907 344.382C98.6936 344.248 98.4296 344.124 98.0987 344.008C97.6227 343.841 97.2063 343.653 96.8493 343.445C96.496 343.233 96.2209 342.973 96.0238 342.664C95.8304 342.352 95.7338 341.963 95.7338 341.498C95.7338 341.041 95.8379 340.645 96.0461 340.31C96.2581 339.976 96.5518 339.717 96.9274 339.535C97.3029 339.353 97.7417 339.262 98.2437 339.262C98.6304 339.262 98.9781 339.319 99.2867 339.435C99.5991 339.55 99.8649 339.719 100.084 339.942C100.304 340.165 100.471 340.44 100.586 340.768C100.705 341.091 100.765 341.463 100.765 341.883H99.4261C99.4261 341.645 99.3983 341.433 99.3425 341.247C99.2904 341.058 99.2123 340.898 99.1082 340.768C99.0041 340.634 98.8777 340.532 98.7289 340.461C98.5839 340.39 98.4185 340.355 98.2325 340.355C97.9685 340.355 97.751 340.405 97.58 340.506C97.4089 340.602 97.2825 340.736 97.2007 340.907C97.1226 341.078 97.0835 341.273 97.0835 341.493C97.0835 341.705 97.1244 341.891 97.2063 342.051C97.2881 342.21 97.4275 342.355 97.6246 342.486C97.8254 342.612 98.1005 342.74 98.4501 342.87C98.9297 343.041 99.3443 343.233 99.6939 343.445C100.047 343.653 100.319 343.912 100.508 344.22C100.702 344.525 100.798 344.91 100.798 345.375C100.798 345.855 100.687 346.262 100.464 346.596C100.244 346.931 99.9356 347.186 99.5377 347.36C99.1435 347.532 98.6843 347.617 98.16 347.617C97.8291 347.617 97.5 347.574 97.1728 347.489C96.8493 347.4 96.5555 347.255 96.2915 347.054C96.0275 346.853 95.8174 346.587 95.6612 346.256C95.5051 345.921 95.427 345.512 95.427 345.029H96.7768C96.7768 345.319 96.8158 345.561 96.8939 345.754C96.972 345.947 97.078 346.1 97.2118 346.211C97.3457 346.323 97.4944 346.403 97.658 346.451C97.8254 346.5 97.9927 346.524 98.16 346.524C98.4389 346.524 98.6732 346.477 98.8628 346.384C99.0562 346.288 99.2012 346.154 99.2979 345.983C99.3983 345.808 99.4485 345.609 99.4485 345.386Z" fill="white"/>
<rect x="95.5769" y="311.961" width="49.5" height="7.61537" fill="white"/>
<rect x="74" y="100" width="363" height="312.231" rx="9" fill="#333333"/>
<path d="M74 109C74 104.029 78.0294 100 83 100H428C432.971 100 437 104.029 437 109V143.154H74V109Z" fill="#444444"/>
<path d="M74 308.154H437V403.231C437 408.201 432.971 412.231 428 412.231H83C78.0294 412.231 74 408.201 74 403.231V308.154Z" fill="#444444"/>
<rect x="101.923" y="157.115" width="21.5769" height="12.6923" rx="6.34614" fill="#444444"/>
<rect x="136.192" y="157.115" width="50.7692" height="12.6923" rx="6.34614" fill="#B670CA"/>
<rect x="136.192" y="178.692" width="50.7692" height="12.6923" rx="6.34615" fill="#B670CA"/>
<rect x="136.192" y="200.269" width="50.7692" height="12.6923" rx="6.34616" fill="#B670CA"/>
<rect x="136.192" y="221.846" width="50.7692" height="12.6923" rx="6.34614" fill="#B670CA"/>
<rect x="151.423" y="265" width="50.7692" height="12.6923" rx="6.34615" fill="#B670CA"/>
<rect x="194.577" y="178.692" width="50.7694" height="12.6923" rx="6.34615" fill="#E4BF7A"/>
<rect x="194.577" y="221.846" width="50.7694" height="12.6923" rx="6.34614" fill="#E4BF7A"/>
<rect x="285.962" y="221.846" width="50.7692" height="12.6923" rx="6.34614" fill="#E4BF7A"/>
<rect x="344.346" y="221.846" width="50.7691" height="12.6923" rx="6.34614" fill="#D26B72"/>
<rect x="143.808" y="243.423" width="50.7693" height="12.6924" rx="6.3462" fill="#D26B72"/>
<rect x="159.038" y="286.577" width="50.7692" height="12.6923" rx="6.34614" fill="#D26B72"/>
<rect x="110.808" y="337.346" width="50.7691" height="12.6923" fill="white"/>
<rect x="110.808" y="356.385" width="50.7691" height="12.6923" fill="#98C178"/>
<rect x="169.192" y="337.346" width="33" height="12.6923" fill="#CCCCCC"/>
<rect x="209.808" y="337.346" width="58.3846" height="12.6923" fill="#CCCCCC"/>
<rect x="402.731" y="221.846" width="19.0383" height="12.6923" rx="6.34614" fill="#A8ACB8"/>
<rect x="235.192" y="243.423" width="19.0389" height="12.6924" rx="6.3462" fill="#A8ACB8"/>
<rect x="209.808" y="265" width="19.0385" height="12.6923" rx="6.34615" fill="#A8ACB8"/>
<rect x="225.039" y="157.115" width="25.3849" height="12.6923" rx="6.34614" fill="#B670CA"/>
<rect x="252.962" y="178.692" width="25.3845" height="12.6923" rx="6.34615" fill="#B670CA"/>
<rect x="252.962" y="221.846" width="25.3845" height="12.6923" rx="6.34614" fill="#B670CA"/>
<rect x="202.192" y="243.423" width="25.3848" height="12.6924" rx="6.3462" fill="#B670CA"/>
<rect x="311.346" y="157.115" width="25.3846" height="12.6923" rx="6.34614" fill="#B670CA"/>
<rect x="258.038" y="157.115" width="45.6923" height="12.6923" rx="6.34614" fill="#E4BF7A"/>
<rect x="344.346" y="157.115" width="45.6928" height="12.6923" rx="6.34614" fill="#98C178"/>
<rect x="285.962" y="178.692" width="45.6923" height="12.6923" rx="6.34615" fill="#98C178"/>
<rect x="194.577" y="157.115" width="22.846" height="12.6923" rx="6.34614" fill="#56B5C1"/>
<rect x="101.923" y="178.692" width="21.5769" height="12.6923" rx="6.34615" fill="#444444"/>
<rect x="101.923" y="200.269" width="21.5769" height="12.6923" rx="6.34616" fill="#444444"/>
<rect x="101.923" y="221.846" width="21.5769" height="12.6923" rx="6.34614" fill="#444444"/>
<rect x="101.923" y="243.423" width="21.5769" height="12.6924" rx="6.3462" fill="#444444"/>
<rect x="101.923" y="265" width="21.5769" height="12.6923" rx="6.34615" fill="#444444"/>
<rect x="101.923" y="286.577" width="21.5769" height="12.6923" rx="6.34614" fill="#444444"/>
<rect x="74" y="308.154" width="363" height="15.2308" fill="#4C4C4C"/>
<path d="M98.7122 338.079V339.747H97.8533V338.079H98.7122ZM98.6062 347.188V348.682H97.7529V347.188H98.6062ZM99.4485 345.386C99.4485 345.17 99.4038 344.983 99.3146 344.823C99.2291 344.659 99.0878 344.512 98.8907 344.382C98.6936 344.248 98.4296 344.124 98.0987 344.008C97.6227 343.841 97.2063 343.653 96.8493 343.445C96.496 343.233 96.2209 342.973 96.0238 342.664C95.8304 342.352 95.7338 341.963 95.7338 341.498C95.7338 341.041 95.8379 340.645 96.0461 340.31C96.2581 339.976 96.5518 339.717 96.9274 339.535C97.3029 339.353 97.7417 339.262 98.2437 339.262C98.6304 339.262 98.9781 339.319 99.2867 339.435C99.5991 339.55 99.8649 339.719 100.084 339.942C100.304 340.165 100.471 340.44 100.586 340.768C100.705 341.091 100.765 341.463 100.765 341.883H99.4261C99.4261 341.645 99.3983 341.433 99.3425 341.247C99.2904 341.058 99.2123 340.898 99.1082 340.768C99.0041 340.634 98.8777 340.532 98.7289 340.461C98.5839 340.39 98.4185 340.355 98.2325 340.355C97.9685 340.355 97.751 340.405 97.58 340.506C97.4089 340.602 97.2825 340.736 97.2007 340.907C97.1226 341.078 97.0835 341.273 97.0835 341.493C97.0835 341.705 97.1244 341.891 97.2063 342.051C97.2881 342.21 97.4275 342.355 97.6246 342.486C97.8254 342.612 98.1005 342.74 98.4501 342.87C98.9297 343.041 99.3443 343.233 99.6939 343.445C100.047 343.653 100.319 343.912 100.508 344.22C100.702 344.525 100.798 344.91 100.798 345.375C100.798 345.855 100.687 346.262 100.464 346.596C100.244 346.931 99.9356 347.186 99.5377 347.36C99.1435 347.532 98.6843 347.617 98.16 347.617C97.8291 347.617 97.5 347.574 97.1728 347.489C96.8493 347.4 96.5555 347.255 96.2915 347.054C96.0275 346.853 95.8174 346.587 95.6612 346.256C95.5051 345.921 95.427 345.512 95.427 345.029H96.7768C96.7768 345.319 96.8158 345.561 96.8939 345.754C96.972 345.947 97.078 346.1 97.2118 346.211C97.3457 346.323 97.4944 346.403 97.658 346.451C97.8254 346.5 97.9927 346.524 98.16 346.524C98.4389 346.524 98.6732 346.477 98.8628 346.384C99.0562 346.288 99.2012 346.154 99.2979 345.983C99.3983 345.808 99.4485 345.609 99.4485 345.386Z" fill="white"/>
<rect x="95.5769" y="311.961" width="49.5" height="7.61537" fill="white"/>
</g>
</g>
<defs>
<filter id="filter0_dddddddd_522_244" x="-6" y="46" width="523" height="472.231" filterUnits="userSpaceOnUse" color-interpolation-filters="sRGB">
<feFlood flood-opacity="0" result="BackgroundImageFix"/>
<feColorMatrix in="SourceAlpha" type="matrix" values="0 0 0 0 0 0 0 0 0 0 0 0 0 0 0 0 0 0 127 0" result="hardAlpha"/>
<feOffset dy="0.518243"/>
<feGaussianBlur stdDeviation="0.797297"/>
<feColorMatrix type="matrix" values="0 0 0 0 0 0 0 0 0 0 0 0 0 0 0 0 0 0 0.0479335 0"/>
<feBlend mode="normal" in2="BackgroundImageFix" result="effect1_dropShadow_522_244"/>
<feColorMatrix in="SourceAlpha" type="matrix" values="0 0 0 0 0 0 0 0 0 0 0 0 0 0 0 0 0 0 127 0" result="hardAlpha"/>
<feOffset dy="1.17749"/>
<feGaussianBlur stdDeviation="1.81152"/>
<feColorMatrix type="matrix" values="0 0 0 0 0 0 0 0 0 0 0 0 0 0 0 0 0 0 0.0696822 0"/>
<feBlend mode="normal" in2="effect1_dropShadow_522_244" result="effect2_dropShadow_522_244"/>
<feColorMatrix in="SourceAlpha" type="matrix" values="0 0 0 0 0 0 0 0 0 0 0 0 0 0 0 0 0 0 127 0" result="hardAlpha"/>
<feOffset dy="2.04937"/>
<feGaussianBlur stdDeviation="3.15287"/>
<feColorMatrix type="matrix" values="0 0 0 0 0 0 0 0 0 0 0 0 0 0 0 0 0 0 0.0858211 0"/>
<feBlend mode="normal" in2="effect2_dropShadow_522_244" result="effect3_dropShadow_522_244"/>
<feColorMatrix in="SourceAlpha" type="matrix" values="0 0 0 0 0 0 0 0 0 0 0 0 0 0 0 0 0 0 127 0" result="hardAlpha"/>
<feOffset dy="3.2556"/>
<feGaussianBlur stdDeviation="5.00862"/>
<feColorMatrix type="matrix" values="0 0 0 0 0 0 0 0 0 0 0 0 0 0 0 0 0 0 0.1 0"/>
<feBlend mode="normal" in2="effect3_dropShadow_522_244" result="effect4_dropShadow_522_244"/>
<feColorMatrix in="SourceAlpha" type="matrix" values="0 0 0 0 0 0 0 0 0 0 0 0 0 0 0 0 0 0 127 0" result="hardAlpha"/>
<feOffset dy="5.02315"/>
<feGaussianBlur stdDeviation="7.72793"/>
<feColorMatrix type="matrix" values="0 0 0 0 0 0 0 0 0 0 0 0 0 0 0 0 0 0 0.114179 0"/>
<feBlend mode="normal" in2="effect4_dropShadow_522_244" result="effect5_dropShadow_522_244"/>
<feColorMatrix in="SourceAlpha" type="matrix" values="0 0 0 0 0 0 0 0 0 0 0 0 0 0 0 0 0 0 127 0" result="hardAlpha"/>
<feOffset dy="7.83824"/>
<feGaussianBlur stdDeviation="12.0588"/>
<feColorMatrix type="matrix" values="0 0 0 0 0 0 0 0 0 0 0 0 0 0 0 0 0 0 0.130318 0"/>
<feBlend mode="normal" in2="effect5_dropShadow_522_244" result="effect6_dropShadow_522_244"/>
<feColorMatrix in="SourceAlpha" type="matrix" values="0 0 0 0 0 0 0 0 0 0 0 0 0 0 0 0 0 0 127 0" result="hardAlpha"/>
<feOffset dy="13.0127"/>
<feGaussianBlur stdDeviation="20.0195"/>
<feColorMatrix type="matrix" values="0 0 0 0 0 0 0 0 0 0 0 0 0 0 0 0 0 0 0.152067 0"/>
<feBlend mode="normal" in2="effect6_dropShadow_522_244" result="effect7_dropShadow_522_244"/>
<feColorMatrix in="SourceAlpha" type="matrix" values="0 0 0 0 0 0 0 0 0 0 0 0 0 0 0 0 0 0 127 0" result="hardAlpha"/>
<feOffset dy="26"/>
<feGaussianBlur stdDeviation="40"/>
<feColorMatrix type="matrix" values="0 0 0 0 0 0 0 0 0 0 0 0 0 0 0 0 0 0 0.2 0"/>
<feBlend mode="normal" in2="effect7_dropShadow_522_244" result="effect8_dropShadow_522_244"/>
<feBlend mode="normal" in="SourceGraphic" in2="effect8_dropShadow_522_244" result="shape"/>
</filter>
<clipPath id="clip0_522_244">
<rect width="512" height="512" fill="white"/>
</clipPath>
</defs>
</svg>
