<svg width="2048" height="2048" viewBox="0 0 2048 2048" fill="none" xmlns="http://www.w3.org/2000/svg">
<g clip-path="url(#clip0_204_368)">
<path d="M1787.86 1024.2C1785.67 1025.67 1783.5 1027.04 1781.26 1028.41L1778.78 1029.89L1776.64 1031.05L1629.53 1115.98C1609.74 1127.5 1588.22 1140.03 1565.79 1153.07C1511.28 1184.78 1451.66 1219.34 1399.44 1249.62C1399.33 1302.64 1399.18 1362.15 1399.04 1418.37L1314.79 1369.76L1314.28 1370.68L1175.34 1290.46V1162.67C1177.56 1129.23 1199.24 1101.02 1229.13 1089.25L1342.19 1024L1464.6 953.325L1464.08 952.412L1564.82 894.268L1622.17 861.189C1699.45 804.01 1738.58 711.163 1729.65 619.23C1729.5 617.708 1729.34 616.186 1729.14 614.664C1729.95 615.171 1730.76 615.78 1731.57 616.338C1728.02 579.25 1716.66 542.314 1696.76 507.916C1637.24 404.821 1519.76 356.114 1409.28 379.047V365.855C1585.48 276.408 1804.2 341.705 1905.79 517.555C1905.79 517.606 1905.79 517.606 1905.84 517.657C2007.69 693.964 1954.36 916.694 1787.86 1024.2Z" fill="url(#paint0_linear_204_368)"/>
<path d="M1390.2 1672.35C1358.53 1785.65 1254.6 1868.76 1131.19 1868.76C1093.48 1868.76 1057.55 1860.94 1024.97 1846.93C1106.22 1807.77 1164.73 1728.92 1175.34 1635.52V1548.71C1203.75 1564.99 1231.1 1580.67 1255.82 1594.78L1390.2 1672.35Z" fill="url(#paint1_linear_204_368)"/>
<path d="M1731.58 616.338C1730.77 615.78 1729.96 615.171 1729.15 614.664C1725.14 579.098 1713.92 543.786 1694.84 510.808C1635.67 408.321 1519.21 359.564 1409.28 381.533V379.047C1519.76 356.114 1637.24 404.821 1696.76 507.916C1716.66 542.315 1728.03 579.25 1731.58 616.338Z" fill="url(#paint2_linear_204_368)"/>
<path d="M485.579 896.349C462.488 909.743 440.261 922.681 419.962 934.502L271.932 1019.94C266.807 1014.66 261.935 1009.13 257.317 1003.5C256.099 1002.08 255.034 1000.71 253.917 999.241C252.344 997.263 250.771 995.233 249.35 993.153C187.692 909.794 177.593 794.472 232.755 698.987C252.598 664.588 278.885 636.277 309.232 614.613C309.13 615.729 309.029 616.795 308.978 617.911C301.315 708.779 340.34 800.103 416.714 856.572L485.579 896.349ZM1399.99 1678.04C1397.71 1882.7 1228.47 2047.94 1019.9 2048H1019.8C813.508 2048 645.636 1886.45 639.647 1684.93V1509.59C639.546 1483.87 639.444 1455.6 639.343 1426.28C639.191 1365.91 639.038 1300.86 638.886 1243.53C591.031 1215.77 537.036 1184.42 486.593 1155.1L585.348 1098.07L584.84 1097.21L709.171 1025.42L816.4 1087.31L826.296 1093C854.156 1111.67 867.756 1144.49 862.986 1176.25V1448.15H864.001V1554.79L864.052 1630.64C874.912 1726.13 935.809 1806.39 1019.9 1844.7C1021.57 1845.46 1023.25 1846.22 1024.97 1846.92C1057.55 1860.93 1093.48 1868.75 1131.19 1868.75C1254.6 1868.75 1358.53 1785.64 1390.2 1672.34L1390.96 1672.8L1399.99 1678.04ZM746.927 1669.51H735.103C737.031 1669.61 739.011 1669.71 741.04 1669.71C743.02 1669.71 744.999 1669.61 746.927 1669.51ZM826.093 1584.68C826.093 1582.74 825.991 1580.82 825.89 1578.94V1590.35C825.991 1588.48 826.093 1586.55 826.093 1584.68Z" fill="url(#paint3_linear_204_368)"/>
<path d="M746.927 1669.51C744.998 1669.62 743.019 1669.71 741.04 1669.71C739.01 1669.71 737.031 1669.61 735.103 1669.51H746.927Z" fill="url(#paint4_linear_204_368)"/>
<path d="M826.093 1584.68C826.093 1586.55 825.991 1588.49 825.89 1590.36V1578.94C825.991 1580.83 826.093 1582.75 826.093 1584.68Z" fill="url(#paint5_linear_204_368)"/>
<path d="M639.647 1509.59V1669.11C529.83 1690.82 413.669 1642.01 354.599 1539.68C335.721 1507.05 324.557 1472.05 320.396 1436.83C394.994 1487.57 492.48 1498.79 578.699 1461.29L639.342 1426.28C639.444 1455.61 639.545 1483.87 639.647 1509.59ZM1912.29 1534.76V1534.86C1809.12 1713.5 1585.12 1778.08 1407.56 1682.4L1399.99 1678.04L1390.96 1672.81L1390.2 1672.35L1255.83 1594.78C1231.11 1580.67 1203.76 1565 1175.35 1548.71C1159.61 1539.68 1143.58 1530.5 1127.54 1521.32C1122.52 1518.43 1117.49 1515.53 1112.52 1512.69C1092.07 1500.93 1071.77 1489.25 1052.13 1477.99C1047.72 1475.45 1043.36 1472.97 1039.04 1470.48C1034.31 1467.74 1029.65 1465.06 1025.03 1462.42C974.437 1491.48 917.042 1524.46 864.011 1554.8V1448.16H862.996V1297.22L978.395 1230.6L988.291 1224.92C1018.38 1210.1 1053.65 1214.77 1078.77 1234.76L1175.35 1290.46L1314.29 1370.68L1314.8 1369.76L1399.05 1418.37L1472.88 1461.04C1561.03 1499.39 1661 1486.76 1736.21 1433.13C1737.48 1432.21 1738.7 1431.35 1739.91 1430.44C1739.86 1431.4 1739.76 1432.37 1739.66 1433.34C1770 1411.67 1796.35 1383.36 1816.18 1348.96C1877.08 1243.53 1858.4 1114 1778.79 1029.89L1781.27 1028.41C1783.5 1027.04 1785.68 1025.67 1787.87 1024.2C1959.38 1130.09 2015.41 1356.16 1912.29 1534.75V1534.76ZM1439.78 1593.92L1433.89 1604.21C1434.96 1602.59 1436.03 1600.92 1437.04 1599.19C1438.05 1597.47 1438.92 1595.69 1439.78 1593.92Z" fill="url(#paint6_linear_204_368)"/>
<path d="M1439.78 1593.92C1438.92 1595.69 1438.05 1597.46 1437.04 1599.19C1436.03 1600.91 1434.96 1602.59 1433.89 1604.21L1439.78 1593.92Z" fill="url(#paint7_linear_204_368)"/>
<path d="M1816.17 1348.96C1796.34 1383.37 1769.99 1411.68 1739.65 1433.34C1739.75 1432.38 1739.85 1431.41 1739.91 1430.45C1768.68 1409.15 1793.65 1381.74 1812.68 1348.76C1873.26 1243.89 1855.1 1115.23 1776.64 1031.06L1778.78 1029.9C1858.4 1114.01 1877.07 1243.54 1816.17 1348.96Z" fill="url(#paint8_linear_204_368)"/>
<path d="M826.093 1584.68C826.093 1586.55 825.991 1588.49 825.89 1590.36V1578.94C825.991 1580.83 826.093 1582.75 826.093 1584.68Z" fill="#BF5082"/>
<path d="M746.927 1669.51C744.998 1669.62 743.019 1669.71 741.04 1669.71C739.01 1669.71 737.031 1669.61 735.103 1669.51H746.927Z" fill="#BF5082"/>
<path d="M1185.89 599.849V751.397L1068.56 819.129L1058.67 824.811C1028.58 839.626 993.357 834.958 968.237 814.969L874.1 760.631L732.718 679.047L732.211 679.91L650.406 632.726L574.082 588.687C485.934 550.331 385.962 562.913 310.754 616.592C310.145 616.998 309.587 617.454 308.978 617.911C309.029 616.795 309.13 615.729 309.232 614.613C278.885 636.277 252.598 664.588 232.756 698.987C177.593 794.471 187.692 909.794 249.35 993.153C250.771 995.233 252.344 997.262 253.917 999.241C255.034 1000.71 256.1 1002.08 257.317 1003.5C261.834 1009.24 266.655 1014.77 271.73 1020.09L268.177 1022.12C265.792 1023.59 263.407 1025.12 261.022 1026.69C88.0244 921.311 31.2381 694.217 134.661 514.917L134.712 514.867C237.881 336.226 461.829 271.639 639.394 367.327L648.833 372.756L658.018 378.083L658.323 378.235L791.179 454.948C816.604 469.458 844.819 485.643 874.1 502.385C923.376 530.696 975.595 560.681 1021.98 587.317C1073.18 557.89 1131.34 524.456 1184.88 493.811V599.849H1185.89Z" fill="url(#paint9_linear_204_368)"/>
<path d="M309.232 614.613C309.13 615.729 309.029 616.795 308.978 617.911C279.443 639.372 253.714 667.226 234.278 700.966C179.572 795.689 189.113 909.895 249.35 993.153C187.692 909.794 177.593 794.472 232.755 698.987C252.598 664.588 278.885 636.277 309.232 614.613V614.613Z" fill="url(#paint10_linear_204_368)"/>
<path d="M1731.58 616.338C1730.77 615.78 1729.96 615.171 1729.15 614.664C1654.29 562.406 1555.49 550.483 1468.25 588.433L1409.54 622.274C1409.49 592.746 1409.39 564.283 1409.29 538.408V379.047C1519.77 356.114 1637.24 404.821 1696.77 507.916C1716.66 542.315 1728.03 579.25 1731.58 616.338Z" fill="url(#paint11_linear_204_368)"/>
<path d="M1029.95 200.964C1028.94 201.421 1027.92 201.878 1026.95 202.385C1024.97 201.472 1022.94 200.609 1020.91 199.747C1016.5 197.92 1012.03 196.195 1007.51 194.622C1005.43 193.861 1003.35 193.151 1001.27 192.491C998.685 191.629 996.046 190.817 993.407 190.056C991.58 189.498 989.804 188.991 987.977 188.534C983.257 187.215 978.487 186.099 973.666 185.084C969.606 184.221 965.547 183.46 961.436 182.801C960.624 182.649 959.812 182.496 959 182.395C957.224 182.141 955.397 181.837 953.57 181.634C951.439 181.33 949.257 181.076 947.075 180.822C937.433 179.807 927.638 179.249 917.692 179.249C914.901 179.249 912.161 179.3 909.42 179.402C908.963 179.402 908.507 179.452 908.05 179.452C907.39 179.452 906.731 179.452 906.122 179.503C902.975 179.605 899.88 179.807 896.784 180.061C894.145 180.264 891.557 180.467 888.969 180.771C888.614 180.822 888.259 180.822 887.903 180.873C886.838 180.974 885.772 181.127 884.757 181.279C881.611 181.634 878.515 182.091 875.419 182.547C872.476 183.004 869.533 183.511 866.589 184.12C866.488 184.12 866.437 184.171 866.336 184.171C863.849 184.627 861.362 185.135 858.977 185.693C857.861 185.946 856.744 186.2 855.628 186.454C855.374 186.505 855.07 186.555 854.765 186.657C852.431 187.215 850.097 187.824 847.813 188.433C846.798 188.686 845.834 188.94 844.87 189.244C842.231 189.955 839.592 190.766 837.004 191.578C834.314 192.39 831.675 193.303 829.036 194.216C828.224 194.521 827.362 194.775 826.55 195.13C826.195 195.231 825.89 195.383 825.535 195.485C823.048 196.347 820.612 197.261 818.227 198.225C818.075 198.275 817.974 198.326 817.821 198.377C814.878 199.594 811.985 200.812 809.093 202.08C808.94 202.131 808.788 202.233 808.585 202.283C806.099 203.4 803.612 204.567 801.125 205.784C800.161 206.241 799.197 206.697 798.284 207.154C796.457 208.067 794.63 208.981 792.854 209.945C791.788 210.503 790.722 211.061 789.657 211.67C789.454 211.72 789.251 211.822 789.048 211.974C786.916 213.09 784.836 214.308 782.755 215.525C780.116 216.997 777.528 218.57 774.991 220.193C771.895 222.121 768.901 224.1 765.907 226.129C763.319 227.956 760.731 229.782 758.193 231.659C755.757 233.435 753.372 235.262 751.038 237.139C750.48 237.596 749.921 238.001 749.363 238.458C747.232 240.132 745.151 241.857 743.121 243.633C742.817 243.887 742.462 244.191 742.157 244.445C740.432 245.967 738.706 247.438 737.032 249.011C736.778 249.214 736.524 249.417 736.321 249.62C735.205 250.635 734.088 251.649 733.022 252.664C728.861 256.621 724.852 260.68 720.945 264.841C718.966 266.972 717.037 269.102 715.159 271.284C713.485 273.161 711.861 275.089 710.288 277.017C709.679 277.677 709.171 278.336 708.613 279.047C706.888 281.178 705.213 283.308 703.538 285.49C703.285 285.794 703.082 286.099 702.828 286.454C700.899 288.991 699.022 291.578 697.195 294.217C697.144 294.267 697.093 294.318 697.093 294.369C695.622 296.449 694.15 298.58 692.78 300.711C692.475 301.218 692.12 301.726 691.816 302.233C691.562 302.588 691.359 302.892 691.156 303.197C689.735 305.429 688.365 307.56 687.045 309.843C687.045 309.894 686.995 309.995 686.944 310.046C686.842 310.198 686.741 310.401 686.639 310.554C686.284 311.112 685.98 311.67 685.675 312.228C684.254 314.562 682.884 316.946 681.565 319.382C681.514 319.483 681.413 319.635 681.362 319.737C680.093 322.071 678.875 324.404 677.657 326.789C677.353 327.398 677.099 327.956 676.795 328.514C675.577 330.949 674.409 333.435 673.242 335.921C715.159 242.212 809.296 176.916 918.656 176.916C958.341 176.916 996.046 185.541 1029.95 200.964Z" fill="url(#paint12_linear_204_368)"/>
<path d="M1464.09 952.412L1464.6 953.325L1342.2 1024L1232.48 960.682L1222.64 954.949C1194.78 936.278 1181.18 903.452 1185.9 871.691V599.849H1184.89V417.302C1174.02 321.817 1113.13 241.553 1029.04 203.298C1028.33 202.994 1027.67 202.689 1026.96 202.385C1027.92 201.878 1028.95 201.421 1029.96 200.964C996.056 185.541 958.351 176.916 918.666 176.916C809.306 176.916 715.169 242.213 673.252 335.922C672.339 337.799 671.527 339.727 670.715 341.655V341.705C670.664 341.756 670.613 341.858 670.613 341.908C669.954 343.329 669.395 344.699 668.837 346.119C668.736 346.322 668.634 346.525 668.583 346.728C667.569 349.265 666.554 351.802 665.589 354.389C664.828 356.52 664.016 358.651 663.306 360.833C662.951 361.797 662.595 362.862 662.291 363.877C661.631 365.754 661.073 367.631 660.464 369.559C660.362 369.864 660.312 370.168 660.21 370.473C659.449 372.959 658.738 375.546 658.028 378.083L648.843 372.756C649.604 166.768 819.506 0.0507358 1029.04 0H1029.14C1235.48 0 1403.4 161.593 1409.29 363.217V538.408C1409.4 564.283 1409.49 592.746 1409.55 622.274C1409.75 682.497 1409.9 747.287 1410 804.416C1458.67 832.625 1513.63 864.537 1564.84 894.269L1464.09 952.412Z" fill="url(#paint13_linear_204_368)"/>
<path d="M1816.17 1348.96C1796.34 1383.37 1769.99 1411.68 1739.65 1433.34C1739.75 1432.38 1739.85 1431.41 1739.9 1430.45C1747.77 1339.48 1708.64 1247.95 1632.17 1191.38L1565.79 1153.08C1588.22 1140.04 1609.74 1127.51 1629.53 1115.98L1776.65 1031.06L1778.78 1029.9C1858.39 1114.01 1877.07 1243.54 1816.17 1348.96Z" fill="url(#paint14_linear_204_368)"/>
<path d="M1439.78 1593.92C1438.92 1595.69 1438.05 1597.46 1437.04 1599.19C1436.03 1600.91 1434.96 1602.59 1433.89 1604.21L1439.78 1593.92Z" fill="#BF5082"/>
<path d="M918.656 176.916C809.296 176.916 715.159 242.212 673.242 335.921C672.329 337.799 671.517 339.727 670.705 341.655V341.705C670.654 341.756 670.603 341.857 670.603 341.908C669.944 343.329 669.385 344.699 668.827 346.119C668.726 346.322 668.624 346.525 668.573 346.728C664.514 356.926 661.063 367.428 658.322 378.235L791.179 454.947C816.603 469.458 844.819 485.643 874.1 502.385V415.018C884.808 320.701 944.385 241.147 1026.95 202.385C1027.91 201.878 1028.94 201.421 1029.95 200.964C996.046 185.541 958.341 176.916 918.656 176.916ZM874.1 760.63V887.825C871.867 921.311 850.198 949.469 820.359 961.24L709.171 1025.42L584.84 1097.21L585.348 1098.07L486.594 1155.1L427.27 1189.35C349.982 1246.48 310.906 1339.37 319.787 1431.3C319.99 1433.13 320.193 1435.01 320.396 1436.83C324.557 1472.04 335.722 1507.05 354.6 1539.68C413.67 1642.01 529.83 1690.82 639.647 1669.11V1684.93C463.605 1773.98 245.189 1708.68 143.694 1532.93C143.643 1532.93 143.643 1532.87 143.643 1532.87C41.9456 1356.72 94.9765 1134.35 261.022 1026.68C263.407 1025.11 265.792 1023.59 268.177 1022.12L271.729 1020.09L271.932 1019.94L419.962 934.497C440.261 922.675 462.489 909.738 485.579 896.344C539.523 864.989 598.39 830.793 650 800.859C650.101 748.043 650.254 688.784 650.406 632.721L732.211 679.905L732.718 679.042L874.1 760.63Z" fill="url(#paint15_linear_204_368)"/>
</g>
<defs>
<linearGradient id="paint0_linear_204_368" x1="1568.1" y1="342.682" x2="1563.28" y2="1423.1" gradientUnits="userSpaceOnUse">
<stop stop-color="#7B83EB"/>
<stop offset="1" stop-color="#5961C3"/>
</linearGradient>
<linearGradient id="paint1_linear_204_368" x1="1158.36" y1="1906.02" x2="1228.62" y2="1565.13" gradientUnits="userSpaceOnUse">
<stop stop-color="#7B83EB"/>
<stop offset="1" stop-color="#5961C3"/>
</linearGradient>
<linearGradient id="paint2_linear_204_368" x1="1486.37" y1="345.069" x2="1675.65" y2="626.525" gradientUnits="userSpaceOnUse">
<stop stop-color="#438881"/>
<stop offset="0.0534" stop-color="#458D85"/>
<stop offset="0.1299" stop-color="#4B9B91"/>
<stop offset="0.2199" stop-color="#57B3A7"/>
<stop offset="0.2504" stop-color="#5DBDB0"/>
<stop offset="0.2628" stop-color="#59B5A9"/>
<stop offset="0.3052" stop-color="#4EA197"/>
<stop offset="0.3488" stop-color="#47938A"/>
<stop offset="0.3939" stop-color="#448B83"/>
<stop offset="0.4428" stop-color="#438881"/>
<stop offset="0.6445" stop-color="#2D5C56"/>
<stop offset="0.7996" stop-color="#293236"/>
<stop offset="1" stop-color="#293236"/>
</linearGradient>
<linearGradient id="paint3_linear_204_368" x1="453.285" y1="674.977" x2="1188.42" y2="2124.96" gradientUnits="userSpaceOnUse">
<stop stop-color="#7B83EB"/>
<stop offset="1" stop-color="#5961C3"/>
</linearGradient>
<linearGradient id="paint4_linear_204_368" x1="739.568" y1="1667.38" x2="748.864" y2="1681.13" gradientUnits="userSpaceOnUse">
<stop stop-color="#438881"/>
<stop offset="0.0534" stop-color="#458D85"/>
<stop offset="0.1299" stop-color="#4B9B91"/>
<stop offset="0.2199" stop-color="#57B3A7"/>
<stop offset="0.2504" stop-color="#5DBDB0"/>
<stop offset="0.2628" stop-color="#59B5A9"/>
<stop offset="0.3052" stop-color="#4EA197"/>
<stop offset="0.3488" stop-color="#47938A"/>
<stop offset="0.3939" stop-color="#448B83"/>
<stop offset="0.4428" stop-color="#438881"/>
<stop offset="0.6445" stop-color="#2D5C56"/>
<stop offset="0.7996" stop-color="#293236"/>
<stop offset="1" stop-color="#293236"/>
</linearGradient>
<linearGradient id="paint5_linear_204_368" x1="823.81" y1="1581.59" x2="837.104" y2="1601.37" gradientUnits="userSpaceOnUse">
<stop stop-color="#438881"/>
<stop offset="0.0534" stop-color="#458D85"/>
<stop offset="0.1299" stop-color="#4B9B91"/>
<stop offset="0.2199" stop-color="#57B3A7"/>
<stop offset="0.2504" stop-color="#5DBDB0"/>
<stop offset="0.2628" stop-color="#59B5A9"/>
<stop offset="0.3052" stop-color="#4EA197"/>
<stop offset="0.3488" stop-color="#47938A"/>
<stop offset="0.3939" stop-color="#448B83"/>
<stop offset="0.4428" stop-color="#438881"/>
<stop offset="0.6445" stop-color="#2D5C56"/>
<stop offset="0.7996" stop-color="#293236"/>
<stop offset="1" stop-color="#293236"/>
</linearGradient>
<linearGradient id="paint6_linear_204_368" x1="205.069" y1="898.01" x2="421.867" y2="2024" gradientUnits="userSpaceOnUse">
<stop stop-color="#F52537"/>
<stop offset="0.293" stop-color="#F32536"/>
<stop offset="0.465" stop-color="#EA2434"/>
<stop offset="0.605" stop-color="#DC2231"/>
<stop offset="0.729" stop-color="#C8202C"/>
<stop offset="0.841" stop-color="#AE1E25"/>
<stop offset="0.944" stop-color="#8F1A1D"/>
<stop offset="1" stop-color="#7A1818"/>
</linearGradient>
<linearGradient id="paint7_linear_204_368" x1="1435.52" y1="1597.16" x2="1439.47" y2="1603" gradientUnits="userSpaceOnUse">
<stop stop-color="#2EAAB5"/>
<stop offset="0.0998" stop-color="#3BAFBC"/>
<stop offset="0.2426" stop-color="#58BFCE"/>
<stop offset="0.2504" stop-color="#5AC0CF"/>
<stop offset="0.3205" stop-color="#47A6B9"/>
<stop offset="0.3947" stop-color="#3A92A8"/>
<stop offset="0.4711" stop-color="#33849C"/>
<stop offset="0.55" stop-color="#2F7C94"/>
<stop offset="0.6357" stop-color="#2E7A92"/>
<stop offset="0.8344" stop-color="#0D2A3C"/>
<stop offset="1" stop-color="#08151E"/>
</linearGradient>
<linearGradient id="paint8_linear_204_368" x1="1683.47" y1="1115.78" x2="1917.04" y2="1463.07" gradientUnits="userSpaceOnUse">
<stop stop-color="#2EAAB5"/>
<stop offset="0.0998" stop-color="#3BAFBC"/>
<stop offset="0.2426" stop-color="#58BFCE"/>
<stop offset="0.2504" stop-color="#5AC0CF"/>
<stop offset="0.3205" stop-color="#47A6B9"/>
<stop offset="0.3947" stop-color="#3A92A8"/>
<stop offset="0.4711" stop-color="#33849C"/>
<stop offset="0.55" stop-color="#2F7C94"/>
<stop offset="0.6357" stop-color="#2E7A92"/>
<stop offset="0.8344" stop-color="#0D2A3C"/>
<stop offset="1" stop-color="#08151E"/>
</linearGradient>
<linearGradient id="paint9_linear_204_368" x1="636.774" y1="333.947" x2="635.355" y2="1029.74" gradientUnits="userSpaceOnUse">
<stop stop-color="#7B83EB"/>
<stop offset="1" stop-color="#5961C3"/>
</linearGradient>
<linearGradient id="paint10_linear_204_368" x1="369.5" y1="334" x2="246.601" y2="1010.34" gradientUnits="userSpaceOnUse">
<stop stop-color="#7B83EB"/>
<stop offset="1" stop-color="#5961C3"/>
</linearGradient>
<linearGradient id="paint11_linear_204_368" x1="1273.12" y1="574.41" x2="1663.86" y2="496.873" gradientUnits="userSpaceOnUse">
<stop stop-color="#7B83EB"/>
<stop offset="1" stop-color="#5961C3"/>
</linearGradient>
<linearGradient id="paint12_linear_204_368" x1="812.341" y1="210.127" x2="991.473" y2="476.436" gradientUnits="userSpaceOnUse">
<stop stop-color="#2EAAB5"/>
<stop offset="0.0998" stop-color="#3BAFBC"/>
<stop offset="0.2426" stop-color="#58BFCE"/>
<stop offset="0.2504" stop-color="#5AC0CF"/>
<stop offset="0.3205" stop-color="#47A6B9"/>
<stop offset="0.3947" stop-color="#3A92A8"/>
<stop offset="0.4711" stop-color="#33849C"/>
<stop offset="0.55" stop-color="#2F7C94"/>
<stop offset="0.6357" stop-color="#2E7A92"/>
<stop offset="0.8344" stop-color="#0D2A3C"/>
<stop offset="1" stop-color="#08151E"/>
</linearGradient>
<linearGradient id="paint13_linear_204_368" x1="937.732" y1="-46.7337" x2="1798.79" y2="1231.87" gradientUnits="userSpaceOnUse">
<stop stop-color="#F52537"/>
<stop offset="0.293" stop-color="#F32536"/>
<stop offset="0.465" stop-color="#EA2434"/>
<stop offset="0.605" stop-color="#DC2231"/>
<stop offset="0.729" stop-color="#C8202C"/>
<stop offset="0.841" stop-color="#AE1E25"/>
<stop offset="0.944" stop-color="#8F1A1D"/>
<stop offset="1" stop-color="#7A1818"/>
</linearGradient>
<linearGradient id="paint14_linear_204_368" x1="1545.69" y1="957.412" x2="1849.14" y2="1435.61" gradientUnits="userSpaceOnUse">
<stop stop-color="#F52537"/>
<stop offset="0.145833" stop-color="#F32536"/>
<stop offset="0.302083" stop-color="#EA2434"/>
<stop offset="0.411458" stop-color="#DC2231"/>
<stop offset="0.567708" stop-color="#C8202C"/>
<stop offset="0.713542" stop-color="#AE1E25"/>
<stop offset="0.859375" stop-color="#8F1A1D"/>
<stop offset="1" stop-color="#7A1818"/>
</linearGradient>
<linearGradient id="paint15_linear_204_368" x1="255.13" y1="1685.96" x2="434.568" y2="216.038" gradientUnits="userSpaceOnUse">
<stop stop-color="#F52537"/>
<stop offset="0.293" stop-color="#F32536"/>
<stop offset="0.465" stop-color="#EA2434"/>
<stop offset="0.605" stop-color="#DC2231"/>
<stop offset="0.729" stop-color="#C8202C"/>
<stop offset="0.841" stop-color="#AE1E25"/>
<stop offset="0.944" stop-color="#8F1A1D"/>
<stop offset="1" stop-color="#7A1818"/>
</linearGradient>
<clipPath id="clip0_204_368">
<rect width="1881" height="2048" fill="white" transform="translate(83)"/>
</clipPath>
</defs>
</svg>
