<svg width="350" height="500" viewBox="0 0 350 500" fill="none" xmlns="http://www.w3.org/2000/svg">
<g clip-path="url(#clip0_211_481)">
<path d="M265.93 249.525C265.669 249.701 265.409 249.865 265.141 250.028L264.844 250.205L264.589 250.344L246.991 260.504C244.624 261.882 242.05 263.381 239.367 264.941C232.847 268.735 225.715 272.868 219.469 276.491C219.456 282.834 219.438 289.953 219.42 296.678L209.343 290.864L209.282 290.974L192.662 281.377V266.089C192.929 262.089 195.521 258.715 199.097 257.306L212.621 249.5L227.263 241.046L227.201 240.936L239.251 233.981L246.111 230.024C255.355 223.183 260.035 212.076 258.968 201.078C258.949 200.896 258.931 200.714 258.907 200.532C259.004 200.593 259.1 200.666 259.198 200.732C258.773 196.296 257.414 191.877 255.034 187.762C247.914 175.429 233.861 169.602 220.646 172.345V170.767C241.722 160.067 267.885 167.878 280.037 188.915C280.037 188.921 280.037 188.921 280.043 188.927C292.226 210.019 285.847 236.664 265.93 249.525V249.525Z" fill="url(#paint0_linear_211_481)"/>
<path d="M265.93 249.525C265.669 249.701 265.409 249.865 265.141 250.028L264.844 250.205L264.589 250.344L246.991 260.504C244.624 261.882 242.05 263.381 239.367 264.941C232.847 268.735 225.715 272.868 219.469 276.491C219.456 282.834 219.438 289.953 219.42 296.678L209.343 290.864L209.282 290.974L192.662 281.377V266.089C192.929 262.089 195.521 258.715 199.097 257.306L212.621 249.5L227.263 241.046L227.201 240.936L239.251 233.981L246.111 230.024C255.355 223.183 260.035 212.076 258.968 201.078C258.949 200.896 258.931 200.714 258.907 200.532C259.004 200.593 259.1 200.666 259.198 200.732C258.773 196.296 257.414 191.877 255.034 187.762C247.914 175.429 233.861 169.602 220.646 172.345V170.767C241.722 160.067 267.885 167.878 280.037 188.915C280.037 188.921 280.037 188.921 280.043 188.927C292.226 210.019 285.847 236.664 265.93 249.525V249.525Z" fill="url(#paint1_linear_211_481)"/>
<path d="M218.363 327.062C214.576 340.615 202.144 350.557 187.381 350.557C182.87 350.557 178.572 349.622 174.676 347.947C184.394 343.261 191.394 333.829 192.662 322.655V312.271C196.061 314.218 199.333 316.094 202.289 317.782L218.363 327.062Z" fill="url(#paint2_linear_211_481)"/>
<path d="M218.363 327.062C214.576 340.615 202.144 350.557 187.381 350.557C182.87 350.557 178.572 349.622 174.676 347.947C184.394 343.261 191.394 333.829 192.662 322.655V312.271C196.061 314.218 199.333 316.094 202.289 317.782L218.363 327.062Z" fill="url(#paint3_linear_211_481)"/>
<path d="M259.199 200.732C259.102 200.665 259.005 200.592 258.908 200.532C258.428 196.277 257.087 192.053 254.804 188.107C247.726 175.847 233.795 170.014 220.646 172.643V172.345C233.862 169.602 247.914 175.428 255.034 187.762C257.414 191.877 258.774 196.295 259.199 200.732V200.732Z" fill="url(#paint4_linear_211_481)"/>
<path d="M110.155 234.229C107.393 235.831 104.735 237.379 102.307 238.793L84.5996 249.014C83.9865 248.383 83.4038 247.722 82.8514 247.048C82.7057 246.878 82.5783 246.714 82.4447 246.538C82.2565 246.301 82.0683 246.059 81.8984 245.81C74.523 235.838 73.315 222.042 79.9134 210.619C82.2869 206.504 85.4313 203.117 89.0613 200.525C89.0491 200.659 89.037 200.786 89.0309 200.92C88.1143 211.79 92.7823 222.715 101.918 229.471L110.155 234.229ZM219.535 327.741C219.262 352.226 199.018 371.993 174.069 371.999H174.057C149.381 371.999 129.301 352.674 128.585 328.566V307.59C128.573 304.514 128.56 301.132 128.548 297.624C128.53 290.402 128.512 282.62 128.494 275.762C122.769 272.441 116.311 268.691 110.277 265.183L122.09 258.361L122.029 258.258L136.901 249.669L149.727 257.074L150.911 257.754C154.244 259.987 155.87 263.914 155.3 267.714V300.24H155.421V312.998L155.427 322.072C156.726 333.495 164.011 343.097 174.069 347.679C174.269 347.77 174.47 347.861 174.676 347.945C178.573 349.621 182.871 350.556 187.381 350.556C202.144 350.556 214.576 340.614 218.364 327.06L218.454 327.115L219.535 327.741ZM141.417 326.721H140.003C140.233 326.734 140.47 326.745 140.713 326.745C140.95 326.745 141.187 326.734 141.417 326.721ZM150.887 316.573C150.887 316.342 150.875 316.112 150.863 315.887V317.252C150.875 317.028 150.887 316.797 150.887 316.573Z" fill="url(#paint5_linear_211_481)"/>
<path d="M110.155 234.229C107.393 235.831 104.735 237.379 102.307 238.793L84.5996 249.014C83.9865 248.383 83.4038 247.722 82.8514 247.048C82.7057 246.878 82.5783 246.714 82.4447 246.538C82.2565 246.301 82.0683 246.059 81.8984 245.81C74.523 235.838 73.315 222.042 79.9134 210.619C82.2869 206.504 85.4313 203.117 89.0613 200.525C89.0491 200.659 89.037 200.786 89.0309 200.92C88.1143 211.79 92.7823 222.715 101.918 229.471L110.155 234.229ZM219.535 327.741C219.262 352.226 199.018 371.993 174.069 371.999H174.057C149.381 371.999 129.301 352.674 128.585 328.566V307.59C128.573 304.514 128.56 301.132 128.548 297.624C128.53 290.402 128.512 282.62 128.494 275.762C122.769 272.441 116.311 268.691 110.277 265.183L122.09 258.361L122.029 258.258L136.901 249.669L149.727 257.074L150.911 257.754C154.244 259.987 155.87 263.914 155.3 267.714V300.24H155.421V312.998L155.427 322.072C156.726 333.495 164.011 343.097 174.069 347.679C174.269 347.77 174.47 347.861 174.676 347.945C178.573 349.621 182.871 350.556 187.381 350.556C202.144 350.556 214.576 340.614 218.364 327.06L218.454 327.115L219.535 327.741ZM141.417 326.721H140.003C140.233 326.734 140.47 326.745 140.713 326.745C140.95 326.745 141.187 326.734 141.417 326.721ZM150.887 316.573C150.887 316.342 150.875 316.112 150.863 315.887V317.252C150.875 317.028 150.887 316.797 150.887 316.573Z" fill="url(#paint6_linear_211_481)"/>
<path d="M141.417 326.722C141.187 326.734 140.95 326.746 140.713 326.746C140.47 326.746 140.234 326.734 140.003 326.722H141.417V326.722Z" fill="url(#paint7_linear_211_481)"/>
<path d="M150.887 316.574C150.887 316.798 150.874 317.029 150.862 317.253V315.888C150.874 316.113 150.887 316.343 150.887 316.574Z" fill="url(#paint8_linear_211_481)"/>
<path d="M128.584 307.591V326.673C115.448 329.271 101.554 323.432 94.4878 311.19C92.2297 307.287 90.8942 303.099 90.3965 298.886C99.3198 304.956 110.981 306.298 121.294 301.812L128.548 297.624C128.56 301.133 128.572 304.513 128.584 307.591ZM280.814 310.601V310.613C268.473 331.984 241.679 339.71 220.44 328.263L219.535 327.742L218.455 327.116L218.364 327.061L202.29 317.782C199.334 316.094 196.062 314.218 192.663 312.271C190.781 311.19 188.863 310.092 186.945 308.993C186.344 308.647 185.743 308.301 185.148 307.961C182.702 306.554 180.274 305.157 177.925 303.81C177.397 303.506 176.875 303.209 176.359 302.912C175.793 302.584 175.235 302.263 174.683 301.947C168.631 305.424 161.766 309.37 155.422 312.999V300.241H155.301V282.184L169.105 274.215L170.288 273.535C173.888 271.763 178.107 272.322 181.112 274.712L192.663 281.377L209.284 290.973L209.344 290.863L219.422 296.678L228.254 301.782C238.798 306.371 250.756 304.859 259.752 298.444C259.904 298.334 260.05 298.231 260.195 298.122C260.189 298.237 260.177 298.353 260.164 298.468C263.794 295.877 266.946 292.49 269.318 288.374C276.603 275.762 274.369 260.266 264.845 250.204L265.142 250.027C265.409 249.863 265.67 249.699 265.931 249.523C286.447 262.192 293.15 289.236 280.814 310.6V310.601ZM224.294 317.679L223.59 318.91C223.718 318.716 223.846 318.516 223.966 318.309C224.088 318.103 224.191 317.89 224.294 317.679Z" fill="url(#paint9_linear_211_481)"/>
<path d="M224.294 317.679C224.191 317.891 224.088 318.103 223.966 318.309C223.845 318.516 223.718 318.716 223.59 318.91L224.294 317.679Z" fill="url(#paint10_linear_211_481)"/>
<path d="M269.317 288.375C266.944 292.49 263.793 295.877 260.163 298.469C260.176 298.353 260.187 298.238 260.194 298.123C263.636 295.574 266.622 292.296 268.899 288.351C276.146 275.805 273.973 260.413 264.588 250.344L264.844 250.205C274.367 260.268 276.601 275.763 269.317 288.375V288.375Z" fill="url(#paint11_linear_211_481)"/>
<path d="M150.887 316.574C150.887 316.798 150.874 317.029 150.862 317.253V315.888C150.874 316.113 150.887 316.343 150.887 316.574Z" fill="#BF5082"/>
<path d="M141.417 326.722C141.187 326.734 140.95 326.746 140.713 326.746C140.47 326.746 140.234 326.734 140.003 326.722H141.417V326.722Z" fill="#BF5082"/>
<path d="M193.925 198.76V216.889L179.89 224.992L178.707 225.672C175.107 227.444 170.894 226.885 167.89 224.494L156.629 217.994L139.718 208.234L139.657 208.337L129.872 202.693L120.742 197.424C110.198 192.836 98.2395 194.341 89.2433 200.763C89.1705 200.811 89.1037 200.866 89.0309 200.92C89.037 200.787 89.0491 200.659 89.0612 200.526C85.4312 203.117 82.2868 206.504 79.9134 210.619C73.315 222.042 74.523 235.838 81.8983 245.81C82.0683 246.059 82.2565 246.302 82.4447 246.538C82.5782 246.714 82.7057 246.878 82.8514 247.048C83.3916 247.734 83.9683 248.396 84.5753 249.033L84.1504 249.276C83.8651 249.452 83.5798 249.634 83.2945 249.822C62.601 237.216 55.8084 210.049 68.1796 188.599L68.1856 188.593C80.5265 167.223 107.314 159.496 128.554 170.943L129.683 171.593L130.782 172.23L130.819 172.248L146.71 181.425C149.752 183.161 153.127 185.097 156.629 187.1C162.523 190.487 168.77 194.074 174.318 197.26C180.442 193.74 187.399 189.74 193.803 186.074V198.76H193.925Z" fill="url(#paint12_linear_211_481)"/>
<path d="M89.0613 200.525C89.0491 200.659 89.037 200.786 89.0309 200.92C85.498 203.487 82.4204 206.819 80.0955 210.856C73.5518 222.187 74.693 235.85 81.8984 245.81C74.523 235.838 73.315 222.042 79.9134 210.619C82.2869 206.504 85.4313 203.117 89.0613 200.525V200.525Z" fill="url(#paint13_linear_211_481)"/>
<path d="M259.198 200.732C259.101 200.665 259.004 200.592 258.907 200.532C249.954 194.28 238.135 192.854 227.7 197.394L220.677 201.442C220.671 197.91 220.659 194.505 220.646 191.409V172.345C233.862 169.602 247.914 175.428 255.034 187.762C257.413 191.877 258.774 196.295 259.198 200.732V200.732Z" fill="url(#paint14_linear_211_481)"/>
<path d="M259.198 200.732C259.101 200.665 259.004 200.592 258.907 200.532C249.954 194.28 238.135 192.854 227.7 197.394L220.677 201.442C220.671 197.91 220.659 194.505 220.646 191.409V172.345C233.862 169.602 247.914 175.428 255.034 187.762C257.413 191.877 258.774 196.295 259.198 200.732V200.732Z" fill="url(#paint15_linear_211_481)"/>
<path d="M175.271 151.041C175.151 151.096 175.029 151.15 174.913 151.211C174.676 151.102 174.434 150.999 174.191 150.895C173.663 150.677 173.129 150.47 172.588 150.282C172.339 150.191 172.091 150.106 171.842 150.027C171.532 149.924 171.216 149.827 170.901 149.736C170.682 149.669 170.47 149.609 170.251 149.554C169.687 149.396 169.116 149.263 168.539 149.141C168.054 149.038 167.568 148.947 167.076 148.868C166.979 148.85 166.882 148.832 166.785 148.82C166.573 148.789 166.354 148.753 166.136 148.729C165.881 148.692 165.62 148.662 165.359 148.631C164.205 148.51 163.034 148.443 161.844 148.443C161.51 148.443 161.182 148.449 160.854 148.461C160.8 148.461 160.745 148.468 160.691 148.468C160.612 148.468 160.533 148.468 160.46 148.474C160.084 148.486 159.713 148.51 159.343 148.54C159.027 148.565 158.718 148.589 158.408 148.625C158.366 148.631 158.323 148.631 158.281 148.637C158.153 148.65 158.026 148.668 157.904 148.686C157.528 148.729 157.158 148.783 156.787 148.838C156.435 148.892 156.083 148.953 155.731 149.026C155.719 149.026 155.713 149.032 155.701 149.032C155.403 149.087 155.106 149.147 154.821 149.214C154.687 149.244 154.554 149.275 154.42 149.305C154.39 149.311 154.353 149.317 154.317 149.329C154.038 149.396 153.758 149.469 153.485 149.542C153.364 149.572 153.248 149.603 153.133 149.639C152.817 149.724 152.502 149.821 152.192 149.918C151.87 150.015 151.555 150.124 151.239 150.234C151.142 150.27 151.039 150.301 150.942 150.343C150.899 150.355 150.863 150.373 150.82 150.385C150.523 150.489 150.232 150.598 149.946 150.713C149.928 150.719 149.916 150.725 149.898 150.731C149.546 150.877 149.2 151.023 148.854 151.175C148.835 151.181 148.817 151.193 148.793 151.199C148.495 151.332 148.198 151.472 147.901 151.618C147.785 151.672 147.67 151.727 147.561 151.781C147.342 151.891 147.124 152 146.911 152.115C146.784 152.182 146.656 152.249 146.529 152.322C146.504 152.328 146.48 152.34 146.456 152.358C146.201 152.492 145.952 152.637 145.703 152.783C145.387 152.959 145.078 153.147 144.774 153.341C144.404 153.572 144.046 153.809 143.688 154.051C143.378 154.27 143.069 154.488 142.765 154.713C142.474 154.925 142.188 155.144 141.909 155.369C141.842 155.423 141.776 155.472 141.709 155.526C141.454 155.727 141.205 155.933 140.962 156.145C140.926 156.176 140.883 156.212 140.847 156.243C140.641 156.425 140.434 156.601 140.234 156.789C140.203 156.813 140.173 156.837 140.149 156.862C140.015 156.983 139.882 157.104 139.754 157.226C139.257 157.699 138.777 158.185 138.31 158.682C138.073 158.937 137.842 159.192 137.618 159.453C137.417 159.678 137.223 159.908 137.035 160.139C136.962 160.218 136.901 160.297 136.834 160.382C136.628 160.637 136.428 160.892 136.227 161.153C136.197 161.189 136.173 161.226 136.142 161.268C135.912 161.572 135.687 161.881 135.469 162.197C135.463 162.203 135.457 162.209 135.457 162.215C135.28 162.464 135.104 162.719 134.941 162.974C134.904 163.034 134.862 163.095 134.825 163.156C134.795 163.198 134.771 163.235 134.746 163.271C134.576 163.538 134.412 163.793 134.255 164.066C134.255 164.072 134.249 164.084 134.242 164.09C134.23 164.109 134.218 164.133 134.206 164.151C134.164 164.218 134.127 164.285 134.091 164.351C133.921 164.631 133.757 164.916 133.599 165.207C133.593 165.219 133.581 165.237 133.575 165.25C133.423 165.529 133.277 165.808 133.132 166.093C133.095 166.166 133.065 166.233 133.028 166.3C132.883 166.591 132.743 166.888 132.604 167.186C137.618 155.975 148.878 148.164 161.959 148.164C166.706 148.164 171.216 149.196 175.271 151.041V151.041Z" fill="url(#paint16_linear_211_481)"/>
<path d="M227.202 240.936L227.263 241.045L212.622 249.5L199.498 241.925L198.32 241.239C194.988 239.006 193.361 235.079 193.926 231.279V198.759H193.805V176.921C192.505 165.499 185.221 155.897 175.163 151.32C175.077 151.284 174.999 151.248 174.914 151.211C175.029 151.15 175.151 151.096 175.272 151.041C171.217 149.196 166.707 148.164 161.96 148.164C148.879 148.164 137.618 155.976 132.604 167.186C132.495 167.41 132.398 167.641 132.301 167.872V167.878C132.295 167.884 132.289 167.896 132.289 167.902C132.21 168.072 132.143 168.236 132.076 168.406C132.064 168.43 132.052 168.454 132.046 168.479C131.924 168.782 131.803 169.086 131.688 169.395C131.597 169.65 131.5 169.905 131.415 170.166C131.372 170.281 131.33 170.409 131.293 170.53C131.214 170.755 131.148 170.979 131.075 171.21C131.063 171.246 131.056 171.283 131.044 171.319C130.953 171.617 130.868 171.926 130.783 172.23L129.685 171.592C129.776 146.95 150.099 127.006 175.163 127H175.175C199.857 127 219.943 146.331 220.647 170.451V191.409C220.66 194.505 220.672 197.91 220.678 201.442C220.702 208.646 220.72 216.397 220.732 223.231C226.554 226.606 233.128 230.424 239.253 233.98L227.202 240.936Z" fill="url(#paint17_linear_211_481)"/>
<path d="M269.317 288.375C266.944 292.49 263.793 295.877 260.163 298.469C260.176 298.353 260.188 298.238 260.194 298.123C261.135 287.24 256.455 276.291 247.307 269.524L239.367 264.941C242.05 263.381 244.624 261.882 246.992 260.504L264.589 250.344L264.845 250.205C274.368 260.268 276.601 275.763 269.317 288.375V288.375Z" fill="url(#paint18_linear_211_481)"/>
<path d="M224.294 317.679C224.191 317.891 224.088 318.103 223.966 318.309C223.845 318.516 223.718 318.716 223.59 318.91L224.294 317.679Z" fill="#BF5082"/>
<path d="M161.959 148.164C148.878 148.164 137.617 155.975 132.603 167.186C132.494 167.41 132.397 167.641 132.3 167.872V167.878C132.294 167.884 132.288 167.896 132.288 167.902C132.209 168.072 132.142 168.236 132.075 168.406C132.063 168.43 132.051 168.454 132.045 168.479C131.559 169.699 131.146 170.955 130.819 172.248L146.71 181.425C149.752 183.161 153.127 185.097 156.629 187.1V176.648C157.91 165.365 165.037 155.848 174.913 151.211C175.028 151.15 175.15 151.096 175.271 151.041C171.216 149.196 166.706 148.164 161.959 148.164V148.164ZM156.629 217.993V233.209C156.362 237.215 153.77 240.584 150.201 241.992L136.901 249.67L122.029 258.258L122.09 258.361L110.277 265.183L103.181 269.28C93.9357 276.114 89.2616 287.228 90.3239 298.225C90.3482 298.443 90.3724 298.668 90.3967 298.886C90.8945 303.099 92.2299 307.287 94.4881 311.19C101.554 323.432 115.449 329.271 128.585 326.673V328.567C107.527 339.219 81.4006 331.407 69.2601 310.383C69.254 310.383 69.254 310.376 69.254 310.376C57.0892 289.303 63.4327 262.701 83.2945 249.821C83.5798 249.633 83.8651 249.451 84.1504 249.275L84.5753 249.032L84.5996 249.014L102.307 238.793C104.735 237.379 107.393 235.831 110.155 234.228C116.608 230.478 123.65 226.387 129.823 222.806C129.835 216.487 129.853 209.398 129.872 202.692L139.657 208.336L139.718 208.233L156.629 217.993V217.993Z" fill="url(#paint19_linear_211_481)"/>
</g>
<rect x="116" y="412" width="24" height="24" rx="12" fill="#C4C4C4"/>
<rect x="116" y="412" width="24" height="24" rx="12" fill="url(#paint20_linear_211_481)"/>
<rect x="163" y="412" width="24" height="24" rx="12" fill="#C4C4C4"/>
<rect x="163" y="412" width="24" height="24" rx="12" fill="url(#paint21_linear_211_481)"/>
<rect x="210" y="412" width="24" height="24" rx="12" fill="#C4C4C4"/>
<rect x="210" y="412" width="24" height="24" rx="12" fill="url(#paint22_linear_211_481)"/>
<defs>
<linearGradient id="paint0_linear_211_481" x1="239.644" y1="167.995" x2="239.067" y2="297.244" gradientUnits="userSpaceOnUse">
<stop stop-color="#7B83EB"/>
<stop offset="1" stop-color="#5961C3"/>
</linearGradient>
<linearGradient id="paint1_linear_211_481" x1="294.441" y1="255.029" x2="182.242" y2="242.852" gradientUnits="userSpaceOnUse">
<stop stop-color="#304352"/>
<stop offset="1" stop-color="#D7D2CC"/>
</linearGradient>
<linearGradient id="paint2_linear_211_481" x1="190.632" y1="355.016" x2="199.037" y2="314.236" gradientUnits="userSpaceOnUse">
<stop stop-color="#7B83EB"/>
<stop offset="1" stop-color="#5961C3"/>
</linearGradient>
<linearGradient id="paint3_linear_211_481" x1="222.197" y1="338.355" x2="170.734" y2="329.454" gradientUnits="userSpaceOnUse">
<stop stop-color="#304352"/>
<stop offset="1" stop-color="#D7D2CC"/>
</linearGradient>
<linearGradient id="paint4_linear_211_481" x1="229.867" y1="168.28" x2="252.511" y2="201.949" gradientUnits="userSpaceOnUse">
<stop stop-color="#438881"/>
<stop offset="0.0534" stop-color="#458D85"/>
<stop offset="0.1299" stop-color="#4B9B91"/>
<stop offset="0.2199" stop-color="#57B3A7"/>
<stop offset="0.2504" stop-color="#5DBDB0"/>
<stop offset="0.2628" stop-color="#59B5A9"/>
<stop offset="0.3052" stop-color="#4EA197"/>
<stop offset="0.3488" stop-color="#47938A"/>
<stop offset="0.3939" stop-color="#448B83"/>
<stop offset="0.4428" stop-color="#438881"/>
<stop offset="0.6445" stop-color="#2D5C56"/>
<stop offset="0.7996" stop-color="#293236"/>
<stop offset="1" stop-color="#293236"/>
</linearGradient>
<linearGradient id="paint5_linear_211_481" x1="106.292" y1="207.747" x2="194.241" y2="381.2" gradientUnits="userSpaceOnUse">
<stop stop-color="#7B83EB"/>
<stop offset="1" stop-color="#5961C3"/>
</linearGradient>
<linearGradient id="paint6_linear_211_481" x1="232.164" y1="317.351" x2="60.3184" y2="295.484" gradientUnits="userSpaceOnUse">
<stop stop-color="#304352"/>
<stop offset="1" stop-color="#D7D2CC"/>
</linearGradient>
<linearGradient id="paint7_linear_211_481" x1="140.537" y1="326.466" x2="141.651" y2="328.112" gradientUnits="userSpaceOnUse">
<stop stop-color="#438881"/>
<stop offset="0.0534" stop-color="#458D85"/>
<stop offset="0.1299" stop-color="#4B9B91"/>
<stop offset="0.2199" stop-color="#57B3A7"/>
<stop offset="0.2504" stop-color="#5DBDB0"/>
<stop offset="0.2628" stop-color="#59B5A9"/>
<stop offset="0.3052" stop-color="#4EA197"/>
<stop offset="0.3488" stop-color="#47938A"/>
<stop offset="0.3939" stop-color="#448B83"/>
<stop offset="0.4428" stop-color="#438881"/>
<stop offset="0.6445" stop-color="#2D5C56"/>
<stop offset="0.7996" stop-color="#293236"/>
<stop offset="1" stop-color="#293236"/>
</linearGradient>
<linearGradient id="paint8_linear_211_481" x1="150.614" y1="316.204" x2="152.204" y2="318.57" gradientUnits="userSpaceOnUse">
<stop stop-color="#438881"/>
<stop offset="0.0534" stop-color="#458D85"/>
<stop offset="0.1299" stop-color="#4B9B91"/>
<stop offset="0.2199" stop-color="#57B3A7"/>
<stop offset="0.2504" stop-color="#5DBDB0"/>
<stop offset="0.2628" stop-color="#59B5A9"/>
<stop offset="0.3052" stop-color="#4EA197"/>
<stop offset="0.3488" stop-color="#47938A"/>
<stop offset="0.3939" stop-color="#448B83"/>
<stop offset="0.4428" stop-color="#438881"/>
<stop offset="0.6445" stop-color="#2D5C56"/>
<stop offset="0.7996" stop-color="#293236"/>
<stop offset="1" stop-color="#293236"/>
</linearGradient>
<linearGradient id="paint9_linear_211_481" x1="290" y1="310" x2="200.156" y2="203.584" gradientUnits="userSpaceOnUse">
<stop stop-color="#232526"/>
<stop offset="1" stop-color="#414345"/>
</linearGradient>
<linearGradient id="paint10_linear_211_481" x1="223.784" y1="318.067" x2="224.257" y2="318.765" gradientUnits="userSpaceOnUse">
<stop stop-color="#2EAAB5"/>
<stop offset="0.0998" stop-color="#3BAFBC"/>
<stop offset="0.2426" stop-color="#58BFCE"/>
<stop offset="0.2504" stop-color="#5AC0CF"/>
<stop offset="0.3205" stop-color="#47A6B9"/>
<stop offset="0.3947" stop-color="#3A92A8"/>
<stop offset="0.4711" stop-color="#33849C"/>
<stop offset="0.55" stop-color="#2F7C94"/>
<stop offset="0.6357" stop-color="#2E7A92"/>
<stop offset="0.8344" stop-color="#0D2A3C"/>
<stop offset="1" stop-color="#08151E"/>
</linearGradient>
<linearGradient id="paint11_linear_211_481" x1="253.443" y1="260.479" x2="281.386" y2="302.022" gradientUnits="userSpaceOnUse">
<stop stop-color="#2EAAB5"/>
<stop offset="0.0998" stop-color="#3BAFBC"/>
<stop offset="0.2426" stop-color="#58BFCE"/>
<stop offset="0.2504" stop-color="#5AC0CF"/>
<stop offset="0.3205" stop-color="#47A6B9"/>
<stop offset="0.3947" stop-color="#3A92A8"/>
<stop offset="0.4711" stop-color="#33849C"/>
<stop offset="0.55" stop-color="#2F7C94"/>
<stop offset="0.6357" stop-color="#2E7A92"/>
<stop offset="0.8344" stop-color="#0D2A3C"/>
<stop offset="1" stop-color="#08151E"/>
</linearGradient>
<linearGradient id="paint12_linear_211_481" x1="205.5" y1="223" x2="54" y2="187" gradientUnits="userSpaceOnUse">
<stop stop-color="#304352"/>
<stop offset="1" stop-color="#D7D2CC"/>
</linearGradient>
<linearGradient id="paint13_linear_211_481" x1="82" y1="163" x2="106.657" y2="203.813" gradientUnits="userSpaceOnUse">
<stop stop-color="#304352"/>
<stop offset="1" stop-color="#D7D2CC"/>
</linearGradient>
<linearGradient id="paint14_linear_211_481" x1="204.358" y1="195.716" x2="251.098" y2="186.442" gradientUnits="userSpaceOnUse">
<stop stop-color="#7B83EB"/>
<stop offset="1" stop-color="#5961C3"/>
</linearGradient>
<linearGradient id="paint15_linear_211_481" x1="208" y1="197.5" x2="301.986" y2="168.384" gradientUnits="userSpaceOnUse">
<stop stop-color="#304352"/>
<stop offset="1" stop-color="#D7D2CC"/>
</linearGradient>
<linearGradient id="paint16_linear_211_481" x1="149.242" y1="152.137" x2="170.672" y2="183.993" gradientUnits="userSpaceOnUse">
<stop stop-color="#2EAAB5"/>
<stop offset="0.0998" stop-color="#3BAFBC"/>
<stop offset="0.2426" stop-color="#58BFCE"/>
<stop offset="0.2504" stop-color="#5AC0CF"/>
<stop offset="0.3205" stop-color="#47A6B9"/>
<stop offset="0.3947" stop-color="#3A92A8"/>
<stop offset="0.4711" stop-color="#33849C"/>
<stop offset="0.55" stop-color="#2F7C94"/>
<stop offset="0.6357" stop-color="#2E7A92"/>
<stop offset="0.8344" stop-color="#0D2A3C"/>
<stop offset="1" stop-color="#08151E"/>
</linearGradient>
<linearGradient id="paint17_linear_211_481" x1="234.5" y1="250" x2="168" y2="116" gradientUnits="userSpaceOnUse">
<stop stop-color="#232526"/>
<stop offset="1" stop-color="#414345"/>
</linearGradient>
<linearGradient id="paint18_linear_211_481" x1="250" y1="246.5" x2="293.245" y2="312.474" gradientUnits="userSpaceOnUse">
<stop stop-color="#232526"/>
<stop offset="1" stop-color="#414345"/>
</linearGradient>
<linearGradient id="paint19_linear_211_481" x1="89.5" y1="306" x2="102.002" y2="166.026" gradientUnits="userSpaceOnUse">
<stop stop-color="#232526"/>
<stop offset="1" stop-color="#414345"/>
</linearGradient>
<linearGradient id="paint20_linear_211_481" x1="140.366" y1="429.274" x2="119.388" y2="418.655" gradientUnits="userSpaceOnUse">
<stop stop-color="#232526"/>
<stop offset="1" stop-color="#414345"/>
</linearGradient>
<linearGradient id="paint21_linear_211_481" x1="187.366" y1="429.274" x2="166.388" y2="418.655" gradientUnits="userSpaceOnUse">
<stop stop-color="#232526"/>
<stop offset="1" stop-color="#414345"/>
</linearGradient>
<linearGradient id="paint22_linear_211_481" x1="234.366" y1="429.274" x2="213.388" y2="418.655" gradientUnits="userSpaceOnUse">
<stop stop-color="#232526"/>
<stop offset="1" stop-color="#414345"/>
</linearGradient>
<clipPath id="clip0_211_481">
<rect width="225" height="245" fill="white" transform="translate(62 127)"/>
</clipPath>
</defs>
</svg>
